<?xml version="1.0" encoding="UTF-8"?>
<svg xmlns="http://www.w3.org/2000/svg" version="1.1" width="200" height="200" viewBox="0 0 200 200"><rect x="0" y="0" width="200" height="200" fill="#ffffff"/><g transform="scale(6.897)"><g transform="translate(0,0)"><path fill-rule="evenodd" d="M10 0L10 2L11 2L11 0ZM12 0L12 1L13 1L13 2L12 2L12 4L13 4L13 3L14 3L14 4L17 4L17 5L15 5L15 6L14 6L14 8L15 8L15 9L12 9L12 7L13 7L13 5L11 5L11 6L10 6L10 4L11 4L11 3L8 3L8 4L9 4L9 5L8 5L8 7L9 7L9 8L6 8L6 9L7 9L7 10L5 10L5 11L4 11L4 9L5 9L5 8L0 8L0 11L1 11L1 12L2 12L2 13L0 13L0 15L3 15L3 14L6 14L6 15L5 15L5 16L2 16L2 17L0 17L0 21L1 21L1 18L2 18L2 21L4 21L4 20L5 20L5 21L8 21L8 23L9 23L9 21L10 21L10 23L11 23L11 25L10 25L10 27L11 27L11 25L12 25L12 26L13 26L13 27L12 27L12 29L13 29L13 28L14 28L14 29L20 29L20 28L21 28L21 27L20 27L20 28L19 28L19 26L22 26L22 27L23 27L23 29L24 29L24 28L25 28L25 26L26 26L26 25L27 25L27 28L26 28L26 29L27 29L27 28L28 28L28 26L29 26L29 25L27 25L27 24L28 24L28 23L27 23L27 24L25 24L25 22L26 22L26 21L27 21L27 22L29 22L29 21L27 21L27 20L29 20L29 19L27 19L27 20L22 20L22 19L21 19L21 20L20 20L20 21L18 21L18 20L19 20L19 19L18 19L18 18L20 18L20 16L21 16L21 17L22 17L22 18L23 18L23 17L24 17L24 19L25 19L25 17L27 17L27 18L29 18L29 17L27 17L27 16L29 16L29 15L28 15L28 14L29 14L29 12L25 12L25 11L27 11L27 10L29 10L29 9L28 9L28 8L27 8L27 10L25 10L25 9L26 9L26 8L25 8L25 9L24 9L24 8L23 8L23 9L22 9L22 8L21 8L21 9L19 9L19 8L20 8L20 7L21 7L21 6L20 6L20 7L19 7L19 6L18 6L18 7L19 7L19 8L17 8L17 5L21 5L21 4L19 4L19 3L20 3L20 2L21 2L21 1L20 1L20 0L19 0L19 1L20 1L20 2L18 2L18 3L16 3L16 2L17 2L17 1L16 1L16 0L15 0L15 1L14 1L14 0ZM8 1L8 2L9 2L9 1ZM14 2L14 3L15 3L15 2ZM9 6L9 7L10 7L10 6ZM11 6L11 7L12 7L12 6ZM15 6L15 7L16 7L16 6ZM10 8L10 9L8 9L8 10L7 10L7 11L5 11L5 13L6 13L6 14L7 14L7 13L6 13L6 12L8 12L8 13L9 13L9 12L11 12L11 13L10 13L10 14L9 14L9 15L10 15L10 16L9 16L9 17L10 17L10 18L8 18L8 15L6 15L6 16L5 16L5 17L4 17L4 18L3 18L3 17L2 17L2 18L3 18L3 19L4 19L4 18L5 18L5 17L6 17L6 18L8 18L8 19L10 19L10 18L11 18L11 22L13 22L13 23L12 23L12 25L15 25L15 26L16 26L16 25L17 25L17 26L19 26L19 25L20 25L20 23L15 23L15 22L16 22L16 21L17 21L17 22L18 22L18 21L17 21L17 20L18 20L18 19L16 19L16 21L14 21L14 20L15 20L15 19L14 19L14 20L13 20L13 21L12 21L12 19L13 19L13 18L12 18L12 17L15 17L15 18L18 18L18 17L19 17L19 16L20 16L20 14L21 14L21 16L22 16L22 17L23 17L23 15L24 15L24 14L23 14L23 15L22 15L22 14L21 14L21 13L20 13L20 14L19 14L19 16L18 16L18 15L15 15L15 14L18 14L18 13L19 13L19 12L22 12L22 13L25 13L25 12L24 12L24 11L25 11L25 10L24 10L24 9L23 9L23 10L22 10L22 9L21 9L21 10L19 10L19 9L15 9L15 10L16 10L16 11L17 11L17 12L18 12L18 13L14 13L14 12L15 12L15 11L14 11L14 12L13 12L13 13L12 13L12 11L13 11L13 10L12 10L12 9L11 9L11 8ZM1 9L1 10L3 10L3 9ZM10 9L10 11L11 11L11 9ZM18 10L18 11L19 11L19 10ZM21 10L21 11L22 11L22 12L23 12L23 11L24 11L24 10L23 10L23 11L22 11L22 10ZM2 11L2 12L4 12L4 11ZM2 13L2 14L3 14L3 13ZM26 13L26 15L25 15L25 16L24 16L24 17L25 17L25 16L27 16L27 14L28 14L28 13ZM11 14L11 17L12 17L12 15L13 15L13 14ZM14 15L14 16L15 16L15 17L18 17L18 16L15 16L15 15ZM6 16L6 17L7 17L7 16ZM5 19L5 20L7 20L7 19ZM21 21L21 24L24 24L24 21ZM22 22L22 23L23 23L23 22ZM14 23L14 24L15 24L15 25L16 25L16 24L15 24L15 23ZM8 24L8 29L9 29L9 24ZM17 24L17 25L19 25L19 24ZM22 25L22 26L23 26L23 27L24 27L24 26L25 26L25 25L24 25L24 26L23 26L23 25ZM14 27L14 28L15 28L15 27ZM16 27L16 28L18 28L18 27ZM10 28L10 29L11 29L11 28ZM0 0L0 7L7 7L7 0ZM1 1L1 6L6 6L6 1ZM2 2L2 5L5 5L5 2ZM22 0L22 7L29 7L29 0ZM23 1L23 6L28 6L28 1ZM24 2L24 5L27 5L27 2ZM0 22L0 29L7 29L7 22ZM1 23L1 28L6 28L6 23ZM2 24L2 27L5 27L5 24Z" fill="#000000"/></g></g></svg>
