<?xml version="1.0" encoding="UTF-8"?>
<svg xmlns="http://www.w3.org/2000/svg" version="1.1" width="200" height="200" viewBox="0 0 200 200"><rect x="0" y="0" width="200" height="200" fill="#ffffff"/><g transform="scale(6.897)"><g transform="translate(0,0)"><path fill-rule="evenodd" d="M10 0L10 2L11 2L11 0ZM12 0L12 1L13 1L13 2L12 2L12 4L13 4L13 3L14 3L14 4L17 4L17 5L20 5L20 9L18 9L18 8L16 8L16 7L17 7L17 6L16 6L16 5L15 5L15 6L14 6L14 8L15 8L15 9L12 9L12 7L13 7L13 5L11 5L11 6L10 6L10 4L11 4L11 3L8 3L8 4L9 4L9 5L8 5L8 7L9 7L9 8L6 8L6 9L5 9L5 8L0 8L0 9L5 9L5 10L6 10L6 11L3 11L3 13L2 13L2 12L0 12L0 14L1 14L1 13L2 13L2 15L1 15L1 16L0 16L0 21L1 21L1 18L2 18L2 20L3 20L3 21L4 21L4 19L3 19L3 17L2 17L2 16L3 16L3 13L5 13L5 12L6 12L6 13L7 13L7 14L6 14L6 15L5 15L5 16L4 16L4 18L5 18L5 21L8 21L8 23L9 23L9 24L8 24L8 29L11 29L11 28L10 28L10 27L9 27L9 24L10 24L10 25L12 25L12 26L13 26L13 27L12 27L12 29L13 29L13 28L14 28L14 29L19 29L19 28L22 28L22 29L24 29L24 28L25 28L25 27L27 27L27 28L26 28L26 29L27 29L27 28L28 28L28 26L29 26L29 25L27 25L27 24L28 24L28 22L29 22L29 21L28 21L28 22L27 22L27 24L26 24L26 23L25 23L25 22L26 22L26 21L27 21L27 20L28 20L28 19L27 19L27 18L29 18L29 17L28 17L28 16L29 16L29 15L27 15L27 16L26 16L26 14L29 14L29 13L28 13L28 12L25 12L25 13L24 13L24 12L23 12L23 13L22 13L22 12L21 12L21 13L19 13L19 12L20 12L20 11L18 11L18 12L17 12L17 10L15 10L15 9L18 9L18 10L20 10L20 9L22 9L22 10L21 10L21 11L25 11L25 9L26 9L26 8L25 8L25 9L24 9L24 8L23 8L23 9L22 9L22 8L21 8L21 5L20 5L20 4L21 4L21 3L20 3L20 4L19 4L19 2L18 2L18 3L14 3L14 2L16 2L16 0L15 0L15 1L14 1L14 0ZM19 0L19 1L20 1L20 2L21 2L21 1L20 1L20 0ZM8 1L8 2L9 2L9 1ZM9 6L9 7L10 7L10 6ZM11 6L11 7L12 7L12 6ZM15 6L15 7L16 7L16 6ZM18 6L18 7L19 7L19 6ZM10 8L10 9L8 9L8 11L6 11L6 12L11 12L11 13L10 13L10 15L8 15L8 14L7 14L7 15L6 15L6 16L5 16L5 17L6 17L6 18L7 18L7 19L6 19L6 20L7 20L7 19L8 19L8 20L9 20L9 21L11 21L11 22L10 22L10 24L11 24L11 22L13 22L13 23L12 23L12 25L15 25L15 26L18 26L18 27L14 27L14 28L18 28L18 27L19 27L19 26L20 26L20 27L21 27L21 26L27 26L27 25L26 25L26 24L25 24L25 25L20 25L20 23L17 23L17 24L19 24L19 25L15 25L15 24L16 24L16 23L15 23L15 22L16 22L16 21L17 21L17 22L19 22L19 21L20 21L20 18L21 18L21 19L22 19L22 20L24 20L24 19L23 19L23 18L22 18L22 17L26 17L26 18L25 18L25 20L27 20L27 19L26 19L26 18L27 18L27 17L26 17L26 16L24 16L24 15L25 15L25 14L26 14L26 13L25 13L25 14L24 14L24 13L23 13L23 15L22 15L22 14L21 14L21 16L20 16L20 14L19 14L19 13L17 13L17 12L16 12L16 13L14 13L14 12L15 12L15 11L14 11L14 12L13 12L13 13L12 13L12 11L13 11L13 10L12 10L12 9L11 9L11 8ZM27 8L27 9L28 9L28 10L27 10L27 11L28 11L28 10L29 10L29 9L28 9L28 8ZM6 9L6 10L7 10L7 9ZM10 9L10 11L11 11L11 9ZM23 9L23 10L24 10L24 9ZM1 10L1 11L2 11L2 10ZM16 13L16 14L15 14L15 15L14 15L14 16L15 16L15 17L12 17L12 15L13 15L13 14L11 14L11 16L10 16L10 19L9 19L9 18L8 18L8 19L9 19L9 20L11 20L11 17L12 17L12 18L13 18L13 19L12 19L12 21L13 21L13 20L14 20L14 21L16 21L16 20L17 20L17 21L19 21L19 20L17 20L17 18L18 18L18 19L19 19L19 18L20 18L20 16L16 16L16 15L19 15L19 14L17 14L17 13ZM6 16L6 17L9 17L9 16ZM21 16L21 17L22 17L22 16ZM15 17L15 18L17 18L17 17ZM18 17L18 18L19 18L19 17ZM14 19L14 20L15 20L15 19ZM21 21L21 24L24 24L24 21ZM22 22L22 23L23 23L23 22ZM14 23L14 24L15 24L15 23ZM22 27L22 28L23 28L23 27ZM0 0L0 7L7 7L7 0ZM1 1L1 6L6 6L6 1ZM2 2L2 5L5 5L5 2ZM22 0L22 7L29 7L29 0ZM23 1L23 6L28 6L28 1ZM24 2L24 5L27 5L27 2ZM0 22L0 29L7 29L7 22ZM1 23L1 28L6 28L6 23ZM2 24L2 27L5 27L5 24Z" fill="#000000"/></g></g></svg>
