<?xml version="1.0" encoding="UTF-8"?>
<svg xmlns="http://www.w3.org/2000/svg" version="1.1" width="200" height="200" viewBox="0 0 200 200"><rect x="0" y="0" width="200" height="200" fill="#ffffff"/><g transform="scale(6.897)"><g transform="translate(0,0)"><path fill-rule="evenodd" d="M10 0L10 2L11 2L11 0ZM12 0L12 1L13 1L13 2L12 2L12 4L13 4L13 3L14 3L14 4L16 4L16 5L15 5L15 6L14 6L14 8L15 8L15 9L12 9L12 7L13 7L13 5L11 5L11 6L10 6L10 4L11 4L11 3L8 3L8 4L9 4L9 5L8 5L8 7L9 7L9 8L6 8L6 9L7 9L7 10L6 10L6 11L5 11L5 8L0 8L0 12L1 12L1 13L2 13L2 14L1 14L1 16L0 16L0 21L1 21L1 17L2 17L2 18L3 18L3 17L4 17L4 18L5 18L5 20L6 20L6 21L7 21L7 20L6 20L6 19L7 19L7 18L5 18L5 15L4 15L4 14L3 14L3 13L2 13L2 11L3 11L3 12L5 12L5 14L6 14L6 15L7 15L7 16L6 16L6 17L7 17L7 16L9 16L9 17L8 17L8 18L9 18L9 19L10 19L10 23L9 23L9 21L8 21L8 23L9 23L9 24L8 24L8 29L9 29L9 26L10 26L10 27L11 27L11 26L10 26L10 24L11 24L11 25L12 25L12 26L13 26L13 27L12 27L12 29L13 29L13 28L14 28L14 29L19 29L19 28L22 28L22 29L24 29L24 28L25 28L25 26L26 26L26 27L27 27L27 28L26 28L26 29L27 29L27 28L28 28L28 26L29 26L29 25L27 25L27 24L28 24L28 23L27 23L27 22L29 22L29 21L27 21L27 20L29 20L29 19L27 19L27 20L26 20L26 19L25 19L25 17L27 17L27 18L29 18L29 17L27 17L27 16L28 16L28 15L27 15L27 16L25 16L25 15L23 15L23 13L24 13L24 14L26 14L26 13L27 13L27 14L29 14L29 13L28 13L28 12L29 12L29 11L28 11L28 10L29 10L29 9L28 9L28 8L27 8L27 9L28 9L28 10L26 10L26 11L27 11L27 12L25 12L25 11L23 11L23 9L24 9L24 10L25 10L25 9L26 9L26 8L25 8L25 9L24 9L24 8L23 8L23 9L22 9L22 8L21 8L21 5L20 5L20 4L21 4L21 3L19 3L19 1L20 1L20 2L21 2L21 1L20 1L20 0L19 0L19 1L18 1L18 3L17 3L17 2L16 2L16 0L15 0L15 1L14 1L14 0ZM8 1L8 2L9 2L9 1ZM14 2L14 3L15 3L15 2ZM16 3L16 4L17 4L17 3ZM16 5L16 6L15 6L15 8L16 8L16 6L17 6L17 8L18 8L18 9L15 9L15 10L17 10L17 12L22 12L22 13L23 13L23 11L21 11L21 10L22 10L22 9L20 9L20 8L19 8L19 7L20 7L20 5ZM9 6L9 7L10 7L10 6ZM11 6L11 7L12 7L12 6ZM18 6L18 7L19 7L19 6ZM10 8L10 9L8 9L8 10L9 10L9 12L8 12L8 11L6 11L6 12L7 12L7 13L6 13L6 14L7 14L7 13L9 13L9 12L11 12L11 13L10 13L10 14L8 14L8 15L9 15L9 16L10 16L10 14L13 14L13 15L12 15L12 17L11 17L11 22L13 22L13 23L12 23L12 25L15 25L15 26L16 26L16 27L17 27L17 28L19 28L19 27L21 27L21 26L23 26L23 27L22 27L22 28L23 28L23 27L24 27L24 26L25 26L25 25L24 25L24 26L23 26L23 25L21 25L21 26L19 26L19 27L17 27L17 26L18 26L18 25L20 25L20 24L18 24L18 22L20 22L20 18L21 18L21 19L22 19L22 20L23 20L23 18L24 18L24 17L25 17L25 16L24 16L24 17L23 17L23 15L22 15L22 14L21 14L21 13L20 13L20 14L19 14L19 13L14 13L14 12L16 12L16 11L14 11L14 12L13 12L13 13L12 13L12 11L13 11L13 10L12 10L12 9L11 9L11 8ZM1 9L1 10L2 10L2 9ZM3 9L3 10L4 10L4 9ZM10 9L10 11L11 11L11 9ZM18 9L18 11L19 11L19 10L20 10L20 9ZM24 12L24 13L25 13L25 12ZM2 14L2 16L4 16L4 15L3 15L3 14ZM15 14L15 15L14 15L14 16L15 16L15 17L12 17L12 18L13 18L13 19L12 19L12 21L13 21L13 20L14 20L14 21L17 21L17 22L15 22L15 23L14 23L14 24L15 24L15 25L16 25L16 26L17 26L17 25L18 25L18 24L17 24L17 25L16 25L16 23L17 23L17 22L18 22L18 21L19 21L19 19L18 19L18 18L15 18L15 17L19 17L19 18L20 18L20 16L21 16L21 17L22 17L22 18L23 18L23 17L22 17L22 16L21 16L21 14L20 14L20 16L19 16L19 15L18 15L18 14ZM17 15L17 16L18 16L18 15ZM3 19L3 21L4 21L4 19ZM14 19L14 20L15 20L15 19ZM16 19L16 20L18 20L18 19ZM25 20L25 24L27 24L27 23L26 23L26 22L27 22L27 21L26 21L26 20ZM21 21L21 24L24 24L24 21ZM22 22L22 23L23 23L23 22ZM26 25L26 26L27 26L27 25ZM14 27L14 28L15 28L15 27ZM10 28L10 29L11 29L11 28ZM0 0L0 7L7 7L7 0ZM1 1L1 6L6 6L6 1ZM2 2L2 5L5 5L5 2ZM22 0L22 7L29 7L29 0ZM23 1L23 6L28 6L28 1ZM24 2L24 5L27 5L27 2ZM0 22L0 29L7 29L7 22ZM1 23L1 28L6 28L6 23ZM2 24L2 27L5 27L5 24Z" fill="#000000"/></g></g></svg>
