<?xml version="1.0" encoding="UTF-8"?>
<svg xmlns="http://www.w3.org/2000/svg" version="1.1" width="200" height="200" viewBox="0 0 200 200"><rect x="0" y="0" width="200" height="200" fill="#ffffff"/><g transform="scale(6.897)"><g transform="translate(0,0)"><path fill-rule="evenodd" d="M8 0L8 4L10 4L10 3L11 3L11 4L12 4L12 2L11 2L11 0ZM12 0L12 1L13 1L13 0ZM14 0L14 1L15 1L15 0ZM20 0L20 1L19 1L19 2L17 2L17 1L16 1L16 3L14 3L14 2L13 2L13 3L14 3L14 4L13 4L13 5L11 5L11 6L10 6L10 7L9 7L9 5L8 5L8 7L9 7L9 8L10 8L10 7L11 7L11 6L12 6L12 8L11 8L11 9L7 9L7 8L4 8L4 9L5 9L5 10L6 10L6 11L4 11L4 10L3 10L3 9L2 9L2 8L0 8L0 10L1 10L1 11L0 11L0 12L1 12L1 13L0 13L0 14L1 14L1 13L2 13L2 12L1 12L1 11L4 11L4 13L3 13L3 14L4 14L4 15L5 15L5 16L4 16L4 17L5 17L5 19L7 19L7 20L6 20L6 21L8 21L8 22L9 22L9 23L8 23L8 25L9 25L9 23L10 23L10 25L12 25L12 26L10 26L10 27L8 27L8 29L9 29L9 28L10 28L10 29L11 29L11 28L12 28L12 29L14 29L14 27L15 27L15 28L16 28L16 26L17 26L17 25L19 25L19 26L18 26L18 27L17 27L17 29L18 29L18 28L19 28L19 29L24 29L24 28L23 28L23 27L24 27L24 25L25 25L25 23L27 23L27 25L26 25L26 26L27 26L27 29L28 29L28 28L29 28L29 25L28 25L28 24L29 24L29 21L28 21L28 20L27 20L27 21L26 21L26 22L25 22L25 20L24 20L24 18L25 18L25 19L29 19L29 17L24 17L24 14L25 14L25 15L26 15L26 14L27 14L27 13L28 13L28 16L29 16L29 13L28 13L28 12L29 12L29 8L25 8L25 9L24 9L24 8L23 8L23 9L22 9L22 10L21 10L21 11L23 11L23 13L22 13L22 14L23 14L23 15L22 15L22 16L23 16L23 17L21 17L21 14L20 14L20 19L21 19L21 20L20 20L20 22L19 22L19 23L18 23L18 22L16 22L16 21L19 21L19 18L17 18L17 17L19 17L19 16L18 16L18 15L19 15L19 13L21 13L21 12L20 12L20 11L19 11L19 9L21 9L21 3L20 3L20 2L21 2L21 0ZM9 2L9 3L10 3L10 2ZM17 3L17 4L19 4L19 5L15 5L15 9L13 9L13 8L14 8L14 6L13 6L13 8L12 8L12 9L11 9L11 10L8 10L8 11L9 11L9 13L4 13L4 14L5 14L5 15L6 15L6 16L5 16L5 17L6 17L6 18L7 18L7 19L8 19L8 21L9 21L9 22L10 22L10 23L11 23L11 24L12 24L12 25L13 25L13 26L15 26L15 25L17 25L17 23L15 23L15 22L13 22L13 21L12 21L12 20L13 20L13 19L12 19L12 20L11 20L11 18L12 18L12 17L13 17L13 18L15 18L15 17L17 17L17 14L18 14L18 13L19 13L19 11L18 11L18 13L16 13L16 11L14 11L14 13L16 13L16 16L15 16L15 17L13 17L13 16L14 16L14 15L15 15L15 14L13 14L13 13L12 13L12 12L13 12L13 11L12 11L12 12L11 12L11 13L10 13L10 11L11 11L11 10L12 10L12 9L13 9L13 10L15 10L15 9L17 9L17 10L18 10L18 9L19 9L19 8L18 8L18 9L17 9L17 8L16 8L16 6L17 6L17 7L18 7L18 6L19 6L19 7L20 7L20 6L19 6L19 5L20 5L20 3ZM1 9L1 10L2 10L2 9ZM6 9L6 10L7 10L7 9ZM25 9L25 10L23 10L23 11L26 11L26 13L27 13L27 11L28 11L28 9L27 9L27 10L26 10L26 9ZM6 11L6 12L7 12L7 11ZM24 12L24 13L23 13L23 14L24 14L24 13L25 13L25 12ZM6 14L6 15L8 15L8 16L9 16L9 17L8 17L8 19L9 19L9 21L10 21L10 22L11 22L11 20L10 20L10 19L9 19L9 17L10 17L10 18L11 18L11 17L12 17L12 16L13 16L13 15L12 15L12 16L11 16L11 15L9 15L9 14ZM0 16L0 18L1 18L1 16ZM6 16L6 17L7 17L7 16ZM10 16L10 17L11 17L11 16ZM2 17L2 18L3 18L3 19L2 19L2 20L0 20L0 21L2 21L2 20L3 20L3 21L5 21L5 20L4 20L4 18L3 18L3 17ZM23 17L23 18L24 18L24 17ZM21 18L21 19L22 19L22 18ZM14 19L14 21L16 21L16 20L15 20L15 19ZM21 21L21 24L24 24L24 21ZM22 22L22 23L23 23L23 22ZM12 23L12 24L13 24L13 25L15 25L15 23L14 23L14 24L13 24L13 23ZM19 23L19 24L20 24L20 23ZM22 25L22 27L23 27L23 25ZM27 25L27 26L28 26L28 25ZM19 26L19 27L20 27L20 26ZM10 27L10 28L11 28L11 27ZM12 27L12 28L13 28L13 27ZM25 28L25 29L26 29L26 28ZM0 0L0 7L7 7L7 0ZM1 1L1 6L6 6L6 1ZM2 2L2 5L5 5L5 2ZM22 0L22 7L29 7L29 0ZM23 1L23 6L28 6L28 1ZM24 2L24 5L27 5L27 2ZM0 22L0 29L7 29L7 22ZM1 23L1 28L6 28L6 23ZM2 24L2 27L5 27L5 24Z" fill="#000000"/></g></g></svg>
