<?xml version="1.0" encoding="UTF-8"?>
<svg xmlns="http://www.w3.org/2000/svg" version="1.1" width="200" height="200" viewBox="0 0 200 200"><rect x="0" y="0" width="200" height="200" fill="#ffffff"/><g transform="scale(6.897)"><g transform="translate(0,0)"><path fill-rule="evenodd" d="M10 0L10 2L11 2L11 0ZM12 0L12 1L13 1L13 2L12 2L12 4L13 4L13 3L14 3L14 4L17 4L17 5L20 5L20 7L19 7L19 6L18 6L18 7L19 7L19 8L16 8L16 7L17 7L17 6L16 6L16 5L15 5L15 6L14 6L14 8L16 8L16 9L19 9L19 10L15 10L15 9L12 9L12 7L13 7L13 5L11 5L11 6L10 6L10 4L11 4L11 3L8 3L8 4L9 4L9 5L8 5L8 7L9 7L9 8L6 8L6 9L5 9L5 8L0 8L0 9L1 9L1 10L0 10L0 12L1 12L1 11L2 11L2 10L4 10L4 12L5 12L5 13L4 13L4 15L7 15L7 16L5 16L5 17L3 17L3 16L2 16L2 15L0 15L0 16L1 16L1 17L0 17L0 21L1 21L1 17L2 17L2 18L3 18L3 19L2 19L2 21L3 21L3 19L4 19L4 18L6 18L6 19L7 19L7 18L8 18L8 19L9 19L9 18L10 18L10 19L11 19L11 18L10 18L10 17L12 17L12 18L13 18L13 19L12 19L12 21L13 21L13 20L14 20L14 21L18 21L18 22L19 22L19 23L18 23L18 24L17 24L17 23L16 23L16 22L15 22L15 23L14 23L14 24L15 24L15 25L12 25L12 23L13 23L13 22L11 22L11 25L10 25L10 21L11 21L11 20L9 20L9 21L8 21L8 20L4 20L4 21L8 21L8 23L9 23L9 24L8 24L8 29L9 29L9 27L10 27L10 28L11 28L11 25L12 25L12 26L13 26L13 27L12 27L12 29L13 29L13 28L14 28L14 29L16 29L16 28L14 28L14 27L17 27L17 25L19 25L19 28L21 28L21 29L22 29L22 28L21 28L21 27L23 27L23 29L24 29L24 28L25 28L25 27L27 27L27 28L26 28L26 29L27 29L27 28L28 28L28 26L29 26L29 25L27 25L27 24L28 24L28 22L29 22L29 21L28 21L28 20L29 20L29 19L28 19L28 20L26 20L26 19L27 19L27 18L29 18L29 17L27 17L27 16L29 16L29 15L28 15L28 14L29 14L29 13L28 13L28 10L29 10L29 9L28 9L28 8L27 8L27 9L28 9L28 10L27 10L27 12L25 12L25 11L26 11L26 10L25 10L25 9L26 9L26 8L25 8L25 9L24 9L24 8L23 8L23 9L22 9L22 8L21 8L21 5L20 5L20 4L21 4L21 2L20 2L20 4L19 4L19 3L17 3L17 1L16 1L16 0L15 0L15 1L14 1L14 0ZM18 0L18 1L21 1L21 0ZM8 1L8 2L9 2L9 1ZM14 2L14 3L15 3L15 2ZM9 6L9 7L10 7L10 6ZM11 6L11 7L12 7L12 6ZM15 6L15 7L16 7L16 6ZM10 8L10 9L6 9L6 10L7 10L7 11L5 11L5 12L7 12L7 11L8 11L8 13L6 13L6 14L7 14L7 15L8 15L8 16L7 16L7 17L6 17L6 18L7 18L7 17L8 17L8 18L9 18L9 17L8 17L8 16L9 16L9 15L8 15L8 13L9 13L9 14L13 14L13 15L12 15L12 17L15 17L15 18L16 18L16 17L17 17L17 18L18 18L18 17L19 17L19 16L20 16L20 18L19 18L19 19L17 19L17 20L18 20L18 21L19 21L19 22L20 22L20 20L21 20L21 19L22 19L22 20L24 20L24 19L23 19L23 18L22 18L22 17L25 17L25 16L27 16L27 15L25 15L25 16L23 16L23 15L22 15L22 14L21 14L21 13L20 13L20 14L19 14L19 13L18 13L18 14L17 14L17 13L14 13L14 12L16 12L16 11L14 11L14 12L13 12L13 13L12 13L12 11L13 11L13 10L12 10L12 9L11 9L11 8ZM19 8L19 9L20 9L20 10L19 10L19 11L17 11L17 12L22 12L22 13L23 13L23 14L24 14L24 13L25 13L25 12L24 12L24 13L23 13L23 10L21 10L21 9L20 9L20 8ZM10 9L10 11L11 11L11 9ZM20 10L20 11L21 11L21 10ZM24 10L24 11L25 11L25 10ZM2 12L2 13L3 13L3 12ZM9 12L9 13L11 13L11 12ZM0 13L0 14L1 14L1 13ZM26 13L26 14L28 14L28 13ZM15 14L15 15L14 15L14 16L15 16L15 17L16 17L16 16L17 16L17 17L18 17L18 16L19 16L19 14L18 14L18 16L17 16L17 15L16 15L16 14ZM20 14L20 16L21 16L21 17L22 17L22 16L21 16L21 14ZM26 17L26 18L25 18L25 19L26 19L26 18L27 18L27 17ZM20 18L20 19L21 19L21 18ZM14 19L14 20L15 20L15 19ZM25 20L25 22L26 22L26 23L25 23L25 24L27 24L27 22L28 22L28 21L26 21L26 20ZM21 21L21 24L24 24L24 21ZM22 22L22 23L23 23L23 22ZM16 24L16 25L15 25L15 26L16 26L16 25L17 25L17 24ZM19 24L19 25L20 25L20 24ZM21 25L21 26L20 26L20 27L21 27L21 26L25 26L25 25ZM26 25L26 26L27 26L27 25ZM17 28L17 29L18 29L18 28ZM0 0L0 7L7 7L7 0ZM1 1L1 6L6 6L6 1ZM2 2L2 5L5 5L5 2ZM22 0L22 7L29 7L29 0ZM23 1L23 6L28 6L28 1ZM24 2L24 5L27 5L27 2ZM0 22L0 29L7 29L7 22ZM1 23L1 28L6 28L6 23ZM2 24L2 27L5 27L5 24Z" fill="#000000"/></g></g></svg>
