<?xml version="1.0" encoding="UTF-8"?>
<svg xmlns="http://www.w3.org/2000/svg" version="1.1" width="200" height="200" viewBox="0 0 200 200"><rect x="0" y="0" width="200" height="200" fill="#ffffff"/><g transform="scale(6.897)"><g transform="translate(0,0)"><path fill-rule="evenodd" d="M8 0L8 1L9 1L9 2L8 2L8 5L9 5L9 4L11 4L11 5L10 5L10 10L9 10L9 8L8 8L8 11L7 11L7 10L6 10L6 9L7 9L7 8L6 8L6 9L5 9L5 10L4 10L4 11L3 11L3 12L4 12L4 14L6 14L6 15L7 15L7 16L5 16L5 17L7 17L7 18L5 18L5 19L2 19L2 20L1 20L1 21L2 21L2 20L3 20L3 21L4 21L4 20L6 20L6 21L8 21L8 22L11 22L11 20L12 20L12 19L11 19L11 18L9 18L9 17L7 17L7 16L8 16L8 14L10 14L10 13L11 13L11 15L9 15L9 16L10 16L10 17L11 17L11 16L12 16L12 17L13 17L13 16L12 16L12 14L13 14L13 15L14 15L14 18L13 18L13 21L16 21L16 20L15 20L15 19L17 19L17 21L18 21L18 19L19 19L19 21L20 21L20 22L16 22L16 24L15 24L15 22L14 22L14 23L11 23L11 24L9 24L9 25L8 25L8 29L10 29L10 27L11 27L11 26L12 26L12 28L11 28L11 29L12 29L12 28L14 28L14 27L15 27L15 28L16 28L16 29L17 29L17 28L16 28L16 27L15 27L15 26L17 26L17 27L18 27L18 24L19 24L19 23L20 23L20 25L19 25L19 27L20 27L20 28L19 28L19 29L21 29L21 27L20 27L20 26L22 26L22 25L24 25L24 26L25 26L25 27L23 27L23 28L22 28L22 29L23 29L23 28L24 28L24 29L25 29L25 27L26 27L26 26L27 26L27 24L26 24L26 25L25 25L25 23L28 23L28 24L29 24L29 23L28 23L28 22L29 22L29 19L28 19L28 16L27 16L27 19L26 19L26 16L25 16L25 15L27 15L27 14L28 14L28 15L29 15L29 11L28 11L28 12L26 12L26 13L25 13L25 14L24 14L24 12L23 12L23 11L24 11L24 10L25 10L25 9L27 9L27 8L24 8L24 10L23 10L23 9L22 9L22 8L21 8L21 6L20 6L20 4L19 4L19 3L21 3L21 2L18 2L18 1L17 1L17 2L16 2L16 4L15 4L15 3L14 3L14 5L13 5L13 3L12 3L12 4L11 4L11 2L14 2L14 0L12 0L12 1L11 1L11 0L10 0L10 1L9 1L9 0ZM15 0L15 1L16 1L16 0ZM19 0L19 1L20 1L20 0ZM17 2L17 3L18 3L18 2ZM16 4L16 5L14 5L14 6L13 6L13 5L12 5L12 6L11 6L11 8L12 8L12 6L13 6L13 8L14 8L14 9L15 9L15 10L14 10L14 11L11 11L11 13L12 13L12 12L13 12L13 14L14 14L14 15L16 15L16 16L15 16L15 17L16 17L16 16L17 16L17 17L19 17L19 19L21 19L21 20L25 20L25 21L26 21L26 22L27 22L27 21L28 21L28 19L27 19L27 21L26 21L26 19L23 19L23 16L24 16L24 14L22 14L22 13L23 13L23 12L22 12L22 9L20 9L20 6L19 6L19 8L18 8L18 11L17 11L17 7L18 7L18 5L19 5L19 4ZM16 5L16 7L17 7L17 5ZM8 6L8 7L9 7L9 6ZM14 6L14 7L15 7L15 6ZM0 8L0 9L4 9L4 8ZM28 8L28 10L29 10L29 8ZM11 9L11 10L12 10L12 9ZM19 9L19 10L20 10L20 11L21 11L21 10L20 10L20 9ZM0 10L0 11L2 11L2 10ZM5 10L5 11L4 11L4 12L5 12L5 13L6 13L6 14L7 14L7 13L8 13L8 12L7 12L7 11L6 11L6 10ZM26 10L26 11L27 11L27 10ZM5 11L5 12L6 12L6 13L7 13L7 12L6 12L6 11ZM15 11L15 12L14 12L14 14L16 14L16 13L17 13L17 15L20 15L20 16L19 16L19 17L21 17L21 18L22 18L22 17L21 17L21 15L22 15L22 14L20 14L20 13L19 13L19 11L18 11L18 12L17 12L17 11ZM0 12L0 13L1 13L1 14L2 14L2 15L3 15L3 17L4 17L4 15L3 15L3 13L2 13L2 12ZM21 12L21 13L22 13L22 12ZM0 16L0 17L1 17L1 18L0 18L0 19L1 19L1 18L2 18L2 17L1 17L1 16ZM24 17L24 18L25 18L25 17ZM7 18L7 19L6 19L6 20L7 20L7 19L9 19L9 21L10 21L10 20L11 20L11 19L9 19L9 18ZM17 18L17 19L18 19L18 18ZM21 21L21 24L24 24L24 21ZM22 22L22 23L23 23L23 22ZM17 23L17 24L16 24L16 25L17 25L17 24L18 24L18 23ZM12 24L12 26L13 26L13 27L14 27L14 26L15 26L15 24ZM13 25L13 26L14 26L14 25ZM28 25L28 27L27 27L27 29L28 29L28 27L29 27L29 25ZM0 0L0 7L7 7L7 0ZM1 1L1 6L6 6L6 1ZM2 2L2 5L5 5L5 2ZM22 0L22 7L29 7L29 0ZM23 1L23 6L28 6L28 1ZM24 2L24 5L27 5L27 2ZM0 22L0 29L7 29L7 22ZM1 23L1 28L6 28L6 23ZM2 24L2 27L5 27L5 24Z" fill="#000000"/></g></g></svg>
