<?xml version="1.0" encoding="UTF-8"?>
<svg xmlns="http://www.w3.org/2000/svg" version="1.1" width="200" height="200" viewBox="0 0 200 200"><rect x="0" y="0" width="200" height="200" fill="#ffffff"/><g transform="scale(6.897)"><g transform="translate(0,0)"><path fill-rule="evenodd" d="M8 0L8 1L9 1L9 2L8 2L8 5L9 5L9 4L11 4L11 5L10 5L10 10L9 10L9 12L6 12L6 11L7 11L7 10L8 10L8 9L9 9L9 8L8 8L8 9L7 9L7 8L6 8L6 9L5 9L5 10L2 10L2 9L4 9L4 8L0 8L0 9L1 9L1 10L0 10L0 12L1 12L1 14L0 14L0 15L2 15L2 16L3 16L3 15L4 15L4 17L2 17L2 18L3 18L3 20L4 20L4 21L5 21L5 20L4 20L4 17L5 17L5 19L7 19L7 20L6 20L6 21L7 21L7 20L9 20L9 21L8 21L8 22L9 22L9 21L11 21L11 20L12 20L12 19L11 19L11 17L10 17L10 16L12 16L12 17L13 17L13 16L12 16L12 14L13 14L13 15L14 15L14 18L13 18L13 21L15 21L15 20L16 20L16 17L15 17L15 15L14 15L14 14L16 14L16 13L17 13L17 14L18 14L18 15L20 15L20 16L19 16L19 17L18 17L18 18L17 18L17 21L18 21L18 18L19 18L19 17L21 17L21 18L22 18L22 17L21 17L21 15L22 15L22 14L23 14L23 13L22 13L22 12L23 12L23 11L22 11L22 10L23 10L23 9L22 9L22 8L21 8L21 3L20 3L20 2L19 2L19 1L20 1L20 0L19 0L19 1L18 1L18 3L17 3L17 4L16 4L16 3L14 3L14 5L13 5L13 3L12 3L12 4L11 4L11 2L14 2L14 0L12 0L12 1L11 1L11 0L10 0L10 1L9 1L9 0ZM15 0L15 1L16 1L16 2L17 2L17 1L16 1L16 0ZM19 3L19 4L17 4L17 7L16 7L16 5L14 5L14 6L13 6L13 5L12 5L12 6L11 6L11 8L12 8L12 6L13 6L13 8L14 8L14 9L15 9L15 10L14 10L14 11L11 11L11 13L10 13L10 14L9 14L9 13L8 13L8 15L11 15L11 13L12 13L12 12L13 12L13 14L14 14L14 12L18 12L18 14L19 14L19 13L20 13L20 14L22 14L22 13L21 13L21 12L22 12L22 11L21 11L21 10L22 10L22 9L21 9L21 8L20 8L20 6L19 6L19 8L20 8L20 9L21 9L21 10L19 10L19 11L17 11L17 10L18 10L18 9L17 9L17 10L16 10L16 8L17 8L17 7L18 7L18 5L19 5L19 4L20 4L20 3ZM8 6L8 7L9 7L9 6ZM14 6L14 7L15 7L15 8L16 8L16 7L15 7L15 6ZM24 8L24 11L25 11L25 13L26 13L26 14L24 14L24 15L23 15L23 20L21 20L21 19L19 19L19 22L17 22L17 23L18 23L18 24L17 24L17 25L16 25L16 23L15 23L15 22L14 22L14 23L11 23L11 22L10 22L10 23L9 23L9 25L8 25L8 29L10 29L10 28L9 28L9 27L11 27L11 26L12 26L12 28L11 28L11 29L12 29L12 28L14 28L14 27L15 27L15 28L16 28L16 29L17 29L17 27L18 27L18 28L19 28L19 29L21 29L21 28L22 28L22 26L21 26L21 25L24 25L24 26L27 26L27 24L26 24L26 23L28 23L28 24L29 24L29 23L28 23L28 22L29 22L29 20L28 20L28 17L26 17L26 16L25 16L25 15L27 15L27 14L28 14L28 16L29 16L29 13L28 13L28 11L27 11L27 10L26 10L26 11L25 11L25 9L27 9L27 8ZM28 8L28 10L29 10L29 8ZM6 9L6 10L7 10L7 9ZM11 9L11 10L12 10L12 9ZM1 10L1 11L2 11L2 13L3 13L3 14L4 14L4 15L5 15L5 14L7 14L7 13L3 13L3 11L2 11L2 10ZM4 11L4 12L5 12L5 11ZM19 11L19 12L20 12L20 11ZM26 11L26 12L27 12L27 11ZM6 15L6 16L7 16L7 17L6 17L6 18L8 18L8 19L9 19L9 18L10 18L10 17L9 17L9 18L8 18L8 16L7 16L7 15ZM0 16L0 17L1 17L1 16ZM24 17L24 18L25 18L25 19L24 19L24 20L25 20L25 23L26 23L26 22L27 22L27 21L28 21L28 20L27 20L27 21L26 21L26 19L27 19L27 18L25 18L25 17ZM0 18L0 19L1 19L1 18ZM10 19L10 20L11 20L11 19ZM1 20L1 21L2 21L2 20ZM21 21L21 24L24 24L24 21ZM22 22L22 23L23 23L23 22ZM12 24L12 26L13 26L13 27L14 27L14 26L15 26L15 27L17 27L17 26L15 26L15 24ZM19 24L19 26L18 26L18 27L19 27L19 28L20 28L20 27L21 27L21 26L20 26L20 24ZM13 25L13 26L14 26L14 25ZM28 25L28 27L27 27L27 29L28 29L28 27L29 27L29 25ZM23 27L23 28L24 28L24 29L25 29L25 27ZM0 0L0 7L7 7L7 0ZM1 1L1 6L6 6L6 1ZM2 2L2 5L5 5L5 2ZM22 0L22 7L29 7L29 0ZM23 1L23 6L28 6L28 1ZM24 2L24 5L27 5L27 2ZM0 22L0 29L7 29L7 22ZM1 23L1 28L6 28L6 23ZM2 24L2 27L5 27L5 24Z" fill="#000000"/></g></g></svg>
