<?xml version="1.0" encoding="UTF-8"?>
<svg xmlns="http://www.w3.org/2000/svg" version="1.1" width="200" height="200" viewBox="0 0 200 200"><rect x="0" y="0" width="200" height="200" fill="#ffffff"/><g transform="scale(6.897)"><g transform="translate(0,0)"><path fill-rule="evenodd" d="M10 0L10 2L11 2L11 0ZM12 0L12 1L13 1L13 2L12 2L12 4L13 4L13 3L14 3L14 4L17 4L17 5L15 5L15 6L14 6L14 8L15 8L15 9L12 9L12 7L13 7L13 5L11 5L11 6L10 6L10 4L11 4L11 3L8 3L8 4L9 4L9 5L8 5L8 7L9 7L9 8L6 8L6 9L10 9L10 11L11 11L11 9L12 9L12 10L13 10L13 11L12 11L12 13L13 13L13 12L14 12L14 13L18 13L18 14L17 14L17 15L16 15L16 14L15 14L15 15L14 15L14 16L15 16L15 17L12 17L12 15L13 15L13 14L11 14L11 15L10 15L10 13L11 13L11 12L9 12L9 11L8 11L8 10L6 10L6 11L5 11L5 8L0 8L0 10L2 10L2 12L1 12L1 11L0 11L0 13L2 13L2 12L3 12L3 13L4 13L4 14L2 14L2 15L4 15L4 16L3 16L3 17L2 17L2 18L3 18L3 19L2 19L2 20L3 20L3 19L4 19L4 20L5 20L5 19L4 19L4 18L5 18L5 17L4 17L4 16L6 16L6 17L7 17L7 18L6 18L6 19L8 19L8 18L9 18L9 20L11 20L11 17L12 17L12 18L13 18L13 19L12 19L12 21L13 21L13 20L14 20L14 21L16 21L16 22L15 22L15 23L14 23L14 24L15 24L15 25L12 25L12 23L13 23L13 22L11 22L11 21L8 21L8 23L9 23L9 24L8 24L8 29L9 29L9 28L10 28L10 29L11 29L11 28L10 28L10 27L11 27L11 26L10 26L10 25L9 25L9 24L10 24L10 22L11 22L11 25L12 25L12 26L13 26L13 27L12 27L12 29L13 29L13 28L14 28L14 29L19 29L19 28L21 28L21 29L22 29L22 28L23 28L23 29L24 29L24 28L25 28L25 26L26 26L26 25L27 25L27 28L26 28L26 29L27 29L27 28L28 28L28 26L29 26L29 25L27 25L27 24L28 24L28 22L29 22L29 20L28 20L28 18L29 18L29 17L28 17L28 16L29 16L29 15L27 15L27 16L25 16L25 17L24 17L24 16L23 16L23 17L22 17L22 16L21 16L21 14L22 14L22 15L23 15L23 13L24 13L24 15L26 15L26 13L27 13L27 14L29 14L29 13L27 13L27 12L29 12L29 11L28 11L28 10L29 10L29 9L28 9L28 8L27 8L27 9L28 9L28 10L27 10L27 12L25 12L25 11L26 11L26 8L25 8L25 9L24 9L24 8L23 8L23 9L22 9L22 8L21 8L21 9L19 9L19 8L17 8L17 9L16 9L16 7L17 7L17 5L20 5L20 7L21 7L21 5L20 5L20 4L21 4L21 3L20 3L20 4L19 4L19 3L16 3L16 0L15 0L15 1L14 1L14 0ZM19 0L19 1L18 1L18 2L19 2L19 1L20 1L20 0ZM8 1L8 2L9 2L9 1ZM14 2L14 3L15 3L15 2ZM9 6L9 7L10 7L10 6ZM11 6L11 7L12 7L12 6ZM15 6L15 7L16 7L16 6ZM18 6L18 7L19 7L19 6ZM10 8L10 9L11 9L11 8ZM3 9L3 10L4 10L4 9ZM15 9L15 10L16 10L16 9ZM17 9L17 11L16 11L16 12L18 12L18 13L19 13L19 12L21 12L21 11L23 11L23 10L24 10L24 9L23 9L23 10L22 10L22 9L21 9L21 10L19 10L19 9ZM18 10L18 11L19 11L19 10ZM3 11L3 12L4 12L4 13L5 13L5 11ZM6 11L6 12L7 12L7 13L6 13L6 14L7 14L7 13L8 13L8 15L9 15L9 12L8 12L8 11ZM14 11L14 12L15 12L15 11ZM22 12L22 13L23 13L23 12ZM24 12L24 13L25 13L25 12ZM20 13L20 14L19 14L19 16L18 16L18 15L17 15L17 16L16 16L16 15L15 15L15 16L16 16L16 17L15 17L15 18L16 18L16 17L17 17L17 18L18 18L18 17L19 17L19 16L20 16L20 18L19 18L19 19L20 19L20 20L19 20L19 21L17 21L17 20L18 20L18 19L16 19L16 21L17 21L17 22L16 22L16 23L15 23L15 24L16 24L16 25L15 25L15 26L16 26L16 25L17 25L17 26L19 26L19 27L17 27L17 28L19 28L19 27L22 27L22 26L23 26L23 27L24 27L24 26L25 26L25 25L26 25L26 24L27 24L27 22L28 22L28 21L25 21L25 22L26 22L26 24L25 24L25 25L24 25L24 26L23 26L23 25L22 25L22 26L20 26L20 24L19 24L19 25L17 25L17 24L18 24L18 23L17 23L17 22L20 22L20 20L21 20L21 19L22 19L22 20L27 20L27 18L28 18L28 17L26 17L26 18L25 18L25 19L24 19L24 17L23 17L23 18L22 18L22 17L21 17L21 16L20 16L20 14L21 14L21 13ZM0 14L0 16L1 16L1 14ZM6 15L6 16L7 16L7 17L8 17L8 16L7 16L7 15ZM9 16L9 17L10 17L10 16ZM17 16L17 17L18 17L18 16ZM0 17L0 21L1 21L1 17ZM14 19L14 20L15 20L15 19ZM6 20L6 21L7 21L7 20ZM21 21L21 24L24 24L24 21ZM22 22L22 23L23 23L23 22ZM16 23L16 24L17 24L17 23ZM9 26L9 27L10 27L10 26ZM14 27L14 28L16 28L16 27ZM0 0L0 7L7 7L7 0ZM1 1L1 6L6 6L6 1ZM2 2L2 5L5 5L5 2ZM22 0L22 7L29 7L29 0ZM23 1L23 6L28 6L28 1ZM24 2L24 5L27 5L27 2ZM0 22L0 29L7 29L7 22ZM1 23L1 28L6 28L6 23ZM2 24L2 27L5 27L5 24Z" fill="#000000"/></g></g></svg>
