<?xml version="1.0" encoding="UTF-8"?>
<svg xmlns="http://www.w3.org/2000/svg" version="1.1" width="200" height="200" viewBox="0 0 200 200"><rect x="0" y="0" width="200" height="200" fill="#ffffff"/><g transform="scale(6.897)"><g transform="translate(0,0)"><path fill-rule="evenodd" d="M8 0L8 4L10 4L10 3L11 3L11 4L12 4L12 2L11 2L11 0ZM12 0L12 1L13 1L13 0ZM14 0L14 1L15 1L15 0ZM18 0L18 1L19 1L19 2L17 2L17 1L16 1L16 3L14 3L14 2L13 2L13 3L14 3L14 4L13 4L13 5L11 5L11 6L10 6L10 7L9 7L9 5L8 5L8 7L9 7L9 8L10 8L10 7L11 7L11 6L12 6L12 8L11 8L11 9L7 9L7 8L4 8L4 9L5 9L5 10L3 10L3 9L2 9L2 8L0 8L0 10L3 10L3 14L1 14L1 15L3 15L3 16L2 16L2 17L0 17L0 18L5 18L5 19L4 19L4 20L3 20L3 19L2 19L2 20L0 20L0 21L4 21L4 20L5 20L5 19L7 19L7 20L6 20L6 21L7 21L7 20L8 20L8 22L9 22L9 23L8 23L8 25L10 25L10 27L8 27L8 29L11 29L11 28L12 28L12 29L14 29L14 27L15 27L15 29L21 29L21 27L20 27L20 26L21 26L21 25L23 25L23 27L22 27L22 28L23 28L23 29L24 29L24 28L23 28L23 27L24 27L24 25L25 25L25 19L26 19L26 18L27 18L27 17L28 17L28 20L29 20L29 17L28 17L28 15L29 15L29 13L26 13L26 15L24 15L24 14L25 14L25 13L22 13L22 14L23 14L23 15L22 15L22 16L23 16L23 17L21 17L21 13L20 13L20 18L22 18L22 19L21 19L21 20L19 20L19 17L18 17L18 15L19 15L19 13L18 13L18 12L19 12L19 10L16 10L16 9L20 9L20 11L21 11L21 12L24 12L24 11L26 11L26 10L27 10L27 9L28 9L28 11L27 11L27 12L28 12L28 11L29 11L29 8L25 8L25 9L24 9L24 8L23 8L23 9L20 9L20 8L21 8L21 6L20 6L20 5L21 5L21 1L19 1L19 0ZM9 2L9 3L10 3L10 2ZM16 3L16 5L15 5L15 7L16 7L16 5L17 5L17 7L18 7L18 6L19 6L19 7L20 7L20 6L19 6L19 5L20 5L20 3ZM17 4L17 5L19 5L19 4ZM13 6L13 8L12 8L12 9L11 9L11 10L7 10L7 9L6 9L6 10L5 10L5 12L4 12L4 14L3 14L3 15L5 15L5 16L3 16L3 17L5 17L5 18L7 18L7 19L8 19L8 17L5 17L5 16L8 16L8 15L6 15L6 14L8 14L8 13L9 13L9 15L10 15L10 14L11 14L11 16L9 16L9 20L11 20L11 21L10 21L10 22L11 22L11 23L9 23L9 24L10 24L10 25L11 25L11 26L12 26L12 25L13 25L13 26L15 26L15 25L16 25L16 27L17 27L17 25L16 25L16 24L15 24L15 25L13 25L13 24L14 24L14 23L15 23L15 22L13 22L13 21L12 21L12 20L13 20L13 19L12 19L12 20L11 20L11 18L12 18L12 17L13 17L13 18L15 18L15 17L16 17L16 18L18 18L18 17L16 17L16 16L17 16L17 14L18 14L18 13L16 13L16 12L15 12L15 11L14 11L14 13L16 13L16 16L15 16L15 17L13 17L13 16L14 16L14 15L15 15L15 14L13 14L13 13L12 13L12 12L13 12L13 11L12 11L12 12L11 12L11 13L10 13L10 11L11 11L11 10L12 10L12 9L13 9L13 10L15 10L15 9L13 9L13 8L14 8L14 6ZM23 9L23 10L24 10L24 9ZM6 10L6 11L7 11L7 10ZM21 10L21 11L22 11L22 10ZM0 11L0 13L2 13L2 12L1 12L1 11ZM5 12L5 13L8 13L8 12ZM12 15L12 16L11 16L11 17L12 17L12 16L13 16L13 15ZM26 15L26 17L25 17L25 16L24 16L24 17L23 17L23 19L25 19L25 18L26 18L26 17L27 17L27 15ZM24 17L24 18L25 18L25 17ZM14 19L14 21L16 21L16 23L18 23L18 24L20 24L20 23L19 23L19 22L20 22L20 21L16 21L16 19ZM21 21L21 24L24 24L24 21ZM26 21L26 22L27 22L27 21ZM28 21L28 23L27 23L27 25L26 25L26 27L27 27L27 29L28 29L28 28L29 28L29 25L28 25L28 24L29 24L29 21ZM22 22L22 23L23 23L23 22ZM12 23L12 24L11 24L11 25L12 25L12 24L13 24L13 23ZM18 25L18 27L19 27L19 26L20 26L20 25ZM27 25L27 26L28 26L28 25ZM10 27L10 28L11 28L11 27ZM12 27L12 28L13 28L13 27ZM25 28L25 29L26 29L26 28ZM0 0L0 7L7 7L7 0ZM1 1L1 6L6 6L6 1ZM2 2L2 5L5 5L5 2ZM22 0L22 7L29 7L29 0ZM23 1L23 6L28 6L28 1ZM24 2L24 5L27 5L27 2ZM0 22L0 29L7 29L7 22ZM1 23L1 28L6 28L6 23ZM2 24L2 27L5 27L5 24Z" fill="#000000"/></g></g></svg>
