<?xml version="1.0" encoding="UTF-8"?>
<svg xmlns="http://www.w3.org/2000/svg" version="1.1" width="200" height="200" viewBox="0 0 200 200"><rect x="0" y="0" width="200" height="200" fill="#ffffff"/><g transform="scale(6.897)"><g transform="translate(0,0)"><path fill-rule="evenodd" d="M10 0L10 2L11 2L11 0ZM12 0L12 1L13 1L13 2L12 2L12 4L13 4L13 3L14 3L14 4L16 4L16 5L15 5L15 6L14 6L14 8L15 8L15 9L12 9L12 7L13 7L13 5L11 5L11 6L10 6L10 4L11 4L11 3L8 3L8 4L9 4L9 5L8 5L8 7L9 7L9 8L6 8L6 9L5 9L5 8L0 8L0 9L1 9L1 10L2 10L2 9L3 9L3 11L0 11L0 16L1 16L1 17L0 17L0 21L1 21L1 18L2 18L2 19L3 19L3 20L2 20L2 21L3 21L3 20L4 20L4 21L8 21L8 23L9 23L9 24L8 24L8 29L11 29L11 28L9 28L9 26L11 26L11 25L12 25L12 26L13 26L13 27L12 27L12 29L13 29L13 28L14 28L14 29L16 29L16 28L17 28L17 29L18 29L18 28L22 28L22 27L23 27L23 29L24 29L24 28L25 28L25 26L21 26L21 27L18 27L18 28L17 28L17 27L16 27L16 26L17 26L17 25L19 25L19 23L20 23L20 25L25 25L25 24L26 24L26 25L27 25L27 26L26 26L26 27L27 27L27 28L26 28L26 29L27 29L27 28L28 28L28 26L29 26L29 25L27 25L27 24L28 24L28 22L29 22L29 21L28 21L28 20L29 20L29 19L28 19L28 18L29 18L29 16L26 16L26 15L28 15L28 14L29 14L29 12L25 12L25 11L26 11L26 10L27 10L27 11L28 11L28 10L29 10L29 9L28 9L28 8L27 8L27 9L26 9L26 8L25 8L25 9L24 9L24 8L23 8L23 9L22 9L22 8L21 8L21 4L19 4L19 3L20 3L20 2L19 2L19 1L21 1L21 0L18 0L18 1L17 1L17 2L16 2L16 0L15 0L15 1L14 1L14 0ZM8 1L8 2L9 2L9 1ZM14 2L14 3L16 3L16 4L17 4L17 3L18 3L18 2L17 2L17 3L16 3L16 2ZM17 5L17 7L16 7L16 6L15 6L15 8L19 8L19 9L18 9L18 10L17 10L17 9L15 9L15 10L16 10L16 11L14 11L14 12L13 12L13 13L12 13L12 11L13 11L13 10L12 10L12 9L11 9L11 8L10 8L10 9L9 9L9 10L7 10L7 9L6 9L6 10L5 10L5 9L4 9L4 11L3 11L3 12L4 12L4 13L3 13L3 14L2 14L2 13L1 13L1 15L4 15L4 16L3 16L3 17L4 17L4 16L9 16L9 18L8 18L8 17L5 17L5 19L4 19L4 18L3 18L3 19L4 19L4 20L7 20L7 19L10 19L10 17L11 17L11 22L13 22L13 23L12 23L12 25L15 25L15 26L16 26L16 25L17 25L17 24L18 24L18 23L19 23L19 21L16 21L16 20L18 20L18 19L17 19L17 18L18 18L18 17L19 17L19 16L20 16L20 18L19 18L19 20L21 20L21 19L22 19L22 20L23 20L23 19L24 19L24 17L26 17L26 19L25 19L25 20L28 20L28 19L27 19L27 18L28 18L28 17L26 17L26 16L24 16L24 15L22 15L22 14L21 14L21 16L20 16L20 14L18 14L18 13L21 13L21 11L20 11L20 10L21 10L21 9L20 9L20 5ZM9 6L9 7L10 7L10 6ZM11 6L11 7L12 7L12 6ZM18 6L18 7L19 7L19 6ZM10 9L10 11L11 11L11 9ZM19 9L19 10L18 10L18 12L17 12L17 11L16 11L16 12L14 12L14 13L18 13L18 12L19 12L19 10L20 10L20 9ZM25 9L25 10L26 10L26 9ZM27 9L27 10L28 10L28 9ZM6 10L6 11L7 11L7 12L6 12L6 13L5 13L5 15L8 15L8 13L9 13L9 16L10 16L10 15L11 15L11 17L12 17L12 18L13 18L13 19L12 19L12 21L13 21L13 20L14 20L14 21L15 21L15 20L16 20L16 18L17 18L17 17L18 17L18 16L17 16L17 17L16 17L16 16L15 16L15 15L17 15L17 14L15 14L15 15L14 15L14 16L15 16L15 17L12 17L12 15L13 15L13 14L10 14L10 13L11 13L11 12L9 12L9 11L7 11L7 10ZM22 10L22 11L23 11L23 10ZM22 12L22 13L25 13L25 12ZM6 13L6 14L7 14L7 13ZM26 13L26 14L28 14L28 13ZM21 16L21 17L22 17L22 18L23 18L23 17L24 17L24 16L23 16L23 17L22 17L22 16ZM15 17L15 18L16 18L16 17ZM6 18L6 19L7 19L7 18ZM14 19L14 20L15 20L15 19ZM8 20L8 21L9 21L9 22L10 22L10 21L9 21L9 20ZM21 21L21 24L24 24L24 21ZM25 21L25 22L26 22L26 24L27 24L27 22L28 22L28 21L27 21L27 22L26 22L26 21ZM15 22L15 23L14 23L14 24L15 24L15 25L16 25L16 24L15 24L15 23L17 23L17 22ZM22 22L22 23L23 23L23 22ZM9 24L9 25L10 25L10 24ZM14 27L14 28L16 28L16 27ZM0 0L0 7L7 7L7 0ZM1 1L1 6L6 6L6 1ZM2 2L2 5L5 5L5 2ZM22 0L22 7L29 7L29 0ZM23 1L23 6L28 6L28 1ZM24 2L24 5L27 5L27 2ZM0 22L0 29L7 29L7 22ZM1 23L1 28L6 28L6 23ZM2 24L2 27L5 27L5 24Z" fill="#000000"/></g></g></svg>
