<?xml version="1.0" encoding="UTF-8"?>
<svg xmlns="http://www.w3.org/2000/svg" version="1.1" width="200" height="200" viewBox="0 0 200 200"><rect x="0" y="0" width="200" height="200" fill="#ffffff"/><g transform="scale(6.897)"><g transform="translate(0,0)"><path fill-rule="evenodd" d="M8 0L8 1L9 1L9 2L8 2L8 5L9 5L9 4L11 4L11 5L10 5L10 10L8 10L8 11L7 11L7 10L6 10L6 9L7 9L7 8L6 8L6 9L4 9L4 8L0 8L0 9L1 9L1 10L0 10L0 11L1 11L1 12L2 12L2 11L3 11L3 12L4 12L4 13L3 13L3 14L2 14L2 13L1 13L1 14L2 14L2 15L4 15L4 16L6 16L6 17L5 17L5 18L6 18L6 19L8 19L8 20L9 20L9 21L8 21L8 22L10 22L10 21L11 21L11 20L12 20L12 19L11 19L11 17L9 17L9 18L6 18L6 17L7 17L7 16L8 16L8 15L7 15L7 14L8 14L8 12L9 12L9 13L11 13L11 16L12 16L12 17L13 17L13 16L12 16L12 14L13 14L13 15L14 15L14 18L13 18L13 21L15 21L15 20L16 20L16 22L17 22L17 21L18 21L18 20L19 20L19 17L21 17L21 18L22 18L22 17L21 17L21 15L22 15L22 14L23 14L23 13L22 13L22 12L24 12L24 11L23 11L23 9L22 9L22 8L21 8L21 3L20 3L20 2L18 2L18 3L17 3L17 2L16 2L16 3L14 3L14 5L13 5L13 3L12 3L12 4L11 4L11 2L14 2L14 0L12 0L12 1L11 1L11 0L10 0L10 1L9 1L9 0ZM15 0L15 1L16 1L16 0ZM18 0L18 1L21 1L21 0ZM16 4L16 5L14 5L14 6L13 6L13 5L12 5L12 6L11 6L11 8L12 8L12 6L13 6L13 8L14 8L14 9L15 9L15 10L14 10L14 11L11 11L11 13L12 13L12 12L13 12L13 14L14 14L14 15L15 15L15 17L16 17L16 16L17 16L17 18L16 18L16 20L17 20L17 19L18 19L18 17L19 17L19 16L20 16L20 15L19 15L19 14L18 14L18 15L16 15L16 14L17 14L17 13L16 13L16 14L14 14L14 12L16 12L16 11L17 11L17 12L19 12L19 11L20 11L20 12L22 12L22 9L20 9L20 10L19 10L19 8L20 8L20 6L19 6L19 8L18 8L18 9L17 9L17 7L18 7L18 5L19 5L19 4ZM8 6L8 7L9 7L9 6ZM14 6L14 7L15 7L15 6ZM16 6L16 7L17 7L17 6ZM8 8L8 9L9 9L9 8ZM15 8L15 9L16 9L16 8ZM24 8L24 10L25 10L25 13L27 13L27 14L28 14L28 15L27 15L27 18L26 18L26 17L25 17L25 16L26 16L26 15L23 15L23 16L24 16L24 17L25 17L25 18L24 18L24 19L23 19L23 20L21 20L21 19L20 19L20 21L19 21L19 22L18 22L18 24L17 24L17 23L16 23L16 25L15 25L15 26L14 26L14 25L13 25L13 26L12 26L12 24L15 24L15 22L14 22L14 23L11 23L11 25L10 25L10 26L12 26L12 28L11 28L11 27L10 27L10 28L11 28L11 29L12 29L12 28L14 28L14 27L15 27L15 28L16 28L16 27L15 27L15 26L16 26L16 25L18 25L18 26L19 26L19 27L18 27L18 29L19 29L19 28L20 28L20 29L21 29L21 28L24 28L24 29L25 29L25 27L22 27L22 26L21 26L21 25L24 25L24 26L25 26L25 25L26 25L26 27L27 27L27 29L28 29L28 27L29 27L29 25L28 25L28 27L27 27L27 24L26 24L26 23L28 23L28 24L29 24L29 23L28 23L28 22L29 22L29 19L28 19L28 16L29 16L29 13L28 13L28 12L26 12L26 11L28 11L28 10L29 10L29 8L28 8L28 9L27 9L27 8ZM2 9L2 10L3 10L3 11L4 11L4 12L5 12L5 10L3 10L3 9ZM11 9L11 10L12 10L12 9ZM25 9L25 10L27 10L27 9ZM18 10L18 11L19 11L19 10ZM6 11L6 12L7 12L7 11ZM5 13L5 14L7 14L7 13ZM21 13L21 14L22 14L22 13ZM9 14L9 15L10 15L10 14ZM0 15L0 17L1 17L1 15ZM6 15L6 16L7 16L7 15ZM18 15L18 16L19 16L19 15ZM2 16L2 18L3 18L3 19L2 19L2 20L1 20L1 21L2 21L2 20L3 20L3 19L4 19L4 21L7 21L7 20L5 20L5 19L4 19L4 17L3 17L3 16ZM0 18L0 19L1 19L1 18ZM9 18L9 19L10 19L10 20L11 20L11 19L10 19L10 18ZM25 19L25 22L26 22L26 19ZM27 19L27 21L28 21L28 19ZM21 21L21 24L24 24L24 21ZM22 22L22 23L23 23L23 22ZM19 24L19 25L20 25L20 24ZM8 25L8 29L9 29L9 25ZM13 26L13 27L14 27L14 26ZM0 0L0 7L7 7L7 0ZM1 1L1 6L6 6L6 1ZM2 2L2 5L5 5L5 2ZM22 0L22 7L29 7L29 0ZM23 1L23 6L28 6L28 1ZM24 2L24 5L27 5L27 2ZM0 22L0 29L7 29L7 22ZM1 23L1 28L6 28L6 23ZM2 24L2 27L5 27L5 24Z" fill="#000000"/></g></g></svg>
