<?xml version="1.0" encoding="UTF-8"?>
<svg xmlns="http://www.w3.org/2000/svg" version="1.1" width="200" height="200" viewBox="0 0 200 200"><rect x="0" y="0" width="200" height="200" fill="#ffffff"/><g transform="scale(6.897)"><g transform="translate(0,0)"><path fill-rule="evenodd" d="M10 0L10 2L11 2L11 0ZM12 0L12 1L13 1L13 2L12 2L12 4L13 4L13 3L14 3L14 4L16 4L16 5L15 5L15 6L14 6L14 8L15 8L15 9L12 9L12 7L13 7L13 5L11 5L11 6L10 6L10 4L11 4L11 3L8 3L8 4L9 4L9 5L8 5L8 7L9 7L9 8L6 8L6 9L7 9L7 10L6 10L6 11L4 11L4 12L6 12L6 13L7 13L7 14L6 14L6 15L7 15L7 16L6 16L6 17L4 17L4 15L5 15L5 14L4 14L4 13L3 13L3 14L4 14L4 15L3 15L3 16L2 16L2 15L0 15L0 21L1 21L1 18L3 18L3 19L2 19L2 21L4 21L4 20L3 20L3 19L4 19L4 18L5 18L5 19L7 19L7 18L6 18L6 17L7 17L7 16L11 16L11 17L12 17L12 18L13 18L13 19L12 19L12 21L13 21L13 20L14 20L14 21L16 21L16 22L15 22L15 23L14 23L14 24L16 24L16 25L18 25L18 26L15 26L15 25L12 25L12 23L13 23L13 22L11 22L11 21L10 21L10 20L11 20L11 18L10 18L10 17L8 17L8 18L10 18L10 19L9 19L9 20L6 20L6 21L8 21L8 23L9 23L9 24L8 24L8 29L9 29L9 27L10 27L10 28L11 28L11 27L10 27L10 25L12 25L12 26L13 26L13 27L12 27L12 29L13 29L13 28L14 28L14 29L16 29L16 27L20 27L20 28L19 28L19 29L20 29L20 28L21 28L21 29L24 29L24 28L25 28L25 27L27 27L27 28L26 28L26 29L27 29L27 28L28 28L28 26L29 26L29 25L27 25L27 24L28 24L28 22L29 22L29 21L28 21L28 20L29 20L29 19L27 19L27 20L22 20L22 19L18 19L18 20L17 20L17 18L15 18L15 17L18 17L18 18L20 18L20 16L21 16L21 17L22 17L22 18L23 18L23 19L25 19L25 17L26 17L26 18L29 18L29 17L27 17L27 16L28 16L28 15L27 15L27 16L25 16L25 15L26 15L26 14L29 14L29 13L27 13L27 12L28 12L28 10L29 10L29 9L28 9L28 8L27 8L27 9L28 9L28 10L27 10L27 12L25 12L25 10L26 10L26 8L25 8L25 9L24 9L24 8L23 8L23 9L22 9L22 8L21 8L21 5L20 5L20 4L21 4L21 3L20 3L20 4L19 4L19 3L17 3L17 2L18 2L18 1L16 1L16 0L15 0L15 1L14 1L14 0ZM19 0L19 1L20 1L20 2L21 2L21 1L20 1L20 0ZM8 1L8 2L9 2L9 1ZM14 2L14 3L15 3L15 2ZM16 3L16 4L17 4L17 3ZM16 5L16 6L15 6L15 8L16 8L16 9L15 9L15 10L16 10L16 9L17 9L17 10L18 10L18 9L20 9L20 10L19 10L19 11L17 11L17 12L16 12L16 13L14 13L14 12L15 12L15 11L14 11L14 12L13 12L13 13L12 13L12 11L13 11L13 10L12 10L12 9L11 9L11 8L10 8L10 9L9 9L9 11L8 11L8 12L11 12L11 13L8 13L8 14L7 14L7 15L9 15L9 14L10 14L10 15L11 15L11 14L13 14L13 15L12 15L12 17L15 17L15 16L14 16L14 15L15 15L15 14L16 14L16 15L17 15L17 16L18 16L18 17L19 17L19 16L20 16L20 14L21 14L21 16L22 16L22 17L25 17L25 16L24 16L24 15L25 15L25 14L26 14L26 13L25 13L25 12L23 12L23 10L21 10L21 9L20 9L20 8L19 8L19 7L20 7L20 5ZM9 6L9 7L10 7L10 6ZM11 6L11 7L12 7L12 6ZM16 6L16 7L17 7L17 6ZM18 6L18 7L19 7L19 6ZM0 8L0 11L1 11L1 9L2 9L2 12L0 12L0 13L2 13L2 12L3 12L3 9L4 9L4 10L5 10L5 8ZM17 8L17 9L18 9L18 8ZM10 9L10 11L11 11L11 9ZM20 10L20 11L21 11L21 10ZM6 11L6 12L7 12L7 11ZM17 12L17 13L16 13L16 14L17 14L17 15L18 15L18 14L17 14L17 13L19 13L19 14L20 14L20 13L21 13L21 14L22 14L22 15L23 15L23 14L25 14L25 13L22 13L22 12ZM1 16L1 17L2 17L2 16ZM14 19L14 20L15 20L15 19ZM16 20L16 21L17 21L17 22L16 22L16 24L18 24L18 25L19 25L19 26L20 26L20 27L21 27L21 28L23 28L23 27L24 27L24 26L27 26L27 25L26 25L26 24L27 24L27 22L28 22L28 21L25 21L25 22L26 22L26 24L25 24L25 25L24 25L24 26L23 26L23 25L22 25L22 26L20 26L20 23L18 23L18 21L20 21L20 20L18 20L18 21L17 21L17 20ZM21 21L21 24L24 24L24 21ZM22 22L22 23L23 23L23 22ZM10 23L10 24L9 24L9 25L10 25L10 24L11 24L11 23ZM22 26L22 27L23 27L23 26ZM14 27L14 28L15 28L15 27ZM17 28L17 29L18 29L18 28ZM0 0L0 7L7 7L7 0ZM1 1L1 6L6 6L6 1ZM2 2L2 5L5 5L5 2ZM22 0L22 7L29 7L29 0ZM23 1L23 6L28 6L28 1ZM24 2L24 5L27 5L27 2ZM0 22L0 29L7 29L7 22ZM1 23L1 28L6 28L6 23ZM2 24L2 27L5 27L5 24Z" fill="#000000"/></g></g></svg>
