<?xml version="1.0" encoding="UTF-8"?>
<svg xmlns="http://www.w3.org/2000/svg" version="1.1" width="200" height="200" viewBox="0 0 200 200"><rect x="0" y="0" width="200" height="200" fill="#ffffff"/><g transform="scale(6.897)"><g transform="translate(0,0)"><path fill-rule="evenodd" d="M8 0L8 1L9 1L9 2L8 2L8 5L9 5L9 4L11 4L11 5L10 5L10 10L9 10L9 11L8 11L8 10L4 10L4 8L0 8L0 10L1 10L1 11L0 11L0 12L2 12L2 11L4 11L4 12L3 12L3 13L4 13L4 14L5 14L5 15L1 15L1 13L0 13L0 17L3 17L3 18L2 18L2 20L1 20L1 21L8 21L8 22L9 22L9 21L10 21L10 23L11 23L11 26L12 26L12 28L11 28L11 27L10 27L10 26L9 26L9 25L8 25L8 29L9 29L9 27L10 27L10 29L12 29L12 28L14 28L14 27L15 27L15 28L16 28L16 29L17 29L17 26L18 26L18 24L17 24L17 23L18 23L18 22L17 22L17 23L16 23L16 25L15 25L15 26L14 26L14 25L13 25L13 26L12 26L12 24L15 24L15 22L14 22L14 23L11 23L11 20L12 20L12 19L11 19L11 18L10 18L10 17L11 17L11 16L12 16L12 17L13 17L13 16L12 16L12 14L13 14L13 15L14 15L14 18L13 18L13 21L16 21L16 20L15 20L15 19L16 19L16 18L17 18L17 21L18 21L18 20L19 20L19 24L20 24L20 26L21 26L21 27L20 27L20 28L19 28L19 29L23 29L23 28L24 28L24 29L25 29L25 27L26 27L26 26L25 26L25 25L27 25L27 24L26 24L26 21L27 21L27 20L28 20L28 16L29 16L29 13L28 13L28 14L27 14L27 12L26 12L26 11L25 11L25 10L26 10L26 9L27 9L27 11L28 11L28 12L29 12L29 11L28 11L28 10L29 10L29 8L28 8L28 9L27 9L27 8L24 8L24 9L22 9L22 8L21 8L21 3L20 3L20 2L21 2L21 1L20 1L20 0L19 0L19 1L20 1L20 2L18 2L18 0L17 0L17 1L16 1L16 0L15 0L15 1L16 1L16 3L14 3L14 5L13 5L13 3L12 3L12 4L11 4L11 2L14 2L14 0L12 0L12 1L11 1L11 0L10 0L10 1L9 1L9 0ZM17 2L17 3L18 3L18 2ZM19 3L19 4L16 4L16 5L14 5L14 6L13 6L13 5L12 5L12 6L11 6L11 8L12 8L12 6L13 6L13 8L14 8L14 9L15 9L15 10L14 10L14 11L11 11L11 13L10 13L10 14L11 14L11 13L12 13L12 12L13 12L13 14L14 14L14 15L15 15L15 17L16 17L16 16L17 16L17 18L19 18L19 20L25 20L25 21L26 21L26 19L27 19L27 18L26 18L26 19L23 19L23 16L24 16L24 15L23 15L23 14L22 14L22 13L23 13L23 12L24 12L24 14L25 14L25 11L23 11L23 10L21 10L21 9L20 9L20 6L19 6L19 8L18 8L18 9L17 9L17 7L18 7L18 5L19 5L19 4L20 4L20 3ZM8 6L8 7L9 7L9 6ZM14 6L14 7L15 7L15 6ZM16 6L16 7L17 7L17 6ZM6 8L6 9L7 9L7 8ZM8 8L8 9L9 9L9 8ZM15 8L15 9L16 9L16 8ZM1 9L1 10L3 10L3 9ZM11 9L11 10L12 10L12 9ZM19 9L19 10L18 10L18 11L19 11L19 12L16 12L16 11L17 11L17 10L16 10L16 11L15 11L15 12L14 12L14 14L16 14L16 15L18 15L18 17L21 17L21 18L22 18L22 17L21 17L21 15L22 15L22 14L21 14L21 13L22 13L22 11L21 11L21 12L20 12L20 11L19 11L19 10L20 10L20 9ZM5 11L5 12L4 12L4 13L6 13L6 14L7 14L7 15L6 15L6 16L7 16L7 15L8 15L8 14L9 14L9 12L8 12L8 13L6 13L6 12L7 12L7 11ZM16 13L16 14L17 14L17 13ZM19 15L19 16L20 16L20 15ZM25 15L25 16L26 16L26 17L27 17L27 16L28 16L28 15ZM4 16L4 17L5 17L5 16ZM8 16L8 19L6 19L6 18L7 18L7 17L6 17L6 18L3 18L3 20L5 20L5 19L6 19L6 20L8 20L8 21L9 21L9 20L10 20L10 18L9 18L9 17L10 17L10 16ZM24 17L24 18L25 18L25 17ZM0 18L0 19L1 19L1 18ZM8 19L8 20L9 20L9 19ZM21 21L21 24L24 24L24 21ZM28 21L28 22L29 22L29 21ZM22 22L22 23L23 23L23 22ZM28 23L28 24L29 24L29 23ZM16 25L16 26L15 26L15 27L16 27L16 26L17 26L17 25ZM21 25L21 26L22 26L22 28L23 28L23 27L25 27L25 26L24 26L24 25ZM28 25L28 27L27 27L27 29L28 29L28 27L29 27L29 25ZM13 26L13 27L14 27L14 26ZM0 0L0 7L7 7L7 0ZM1 1L1 6L6 6L6 1ZM2 2L2 5L5 5L5 2ZM22 0L22 7L29 7L29 0ZM23 1L23 6L28 6L28 1ZM24 2L24 5L27 5L27 2ZM0 22L0 29L7 29L7 22ZM1 23L1 28L6 28L6 23ZM2 24L2 27L5 27L5 24Z" fill="#000000"/></g></g></svg>
