<?xml version="1.0" encoding="UTF-8"?>
<svg xmlns="http://www.w3.org/2000/svg" version="1.1" width="200" height="200" viewBox="0 0 200 200"><rect x="0" y="0" width="200" height="200" fill="#ffffff"/><g transform="scale(6.897)"><g transform="translate(0,0)"><path fill-rule="evenodd" d="M8 0L8 1L9 1L9 2L10 2L10 3L11 3L11 1L13 1L13 0L11 0L11 1L9 1L9 0ZM14 0L14 1L18 1L18 0ZM20 0L20 1L19 1L19 2L20 2L20 1L21 1L21 0ZM12 2L12 4L11 4L11 5L10 5L10 4L9 4L9 5L10 5L10 8L9 8L9 6L8 6L8 8L9 8L9 10L10 10L10 11L8 11L8 10L4 10L4 11L3 11L3 10L2 10L2 8L0 8L0 9L1 9L1 10L0 10L0 13L2 13L2 15L0 15L0 16L1 16L1 17L0 17L0 21L2 21L2 20L4 20L4 21L5 21L5 20L6 20L6 21L8 21L8 22L9 22L9 21L10 21L10 23L9 23L9 24L8 24L8 26L9 26L9 27L8 27L8 29L9 29L9 28L10 28L10 29L13 29L13 28L15 28L15 29L16 29L16 28L17 28L17 24L18 24L18 25L19 25L19 26L18 26L18 27L19 27L19 28L20 28L20 29L23 29L23 28L25 28L25 26L26 26L26 28L27 28L27 27L28 27L28 28L29 28L29 23L28 23L28 19L29 19L29 18L28 18L28 19L25 19L25 17L26 17L26 16L29 16L29 11L27 11L27 9L26 9L26 10L25 10L25 9L23 9L23 8L22 8L22 9L23 9L23 10L24 10L24 12L23 12L23 11L21 11L21 12L19 12L19 13L18 13L18 14L16 14L16 12L18 12L18 11L19 11L19 10L20 10L20 7L21 7L21 5L20 5L20 4L21 4L21 3L20 3L20 4L19 4L19 3L17 3L17 2L16 2L16 3L17 3L17 4L18 4L18 5L16 5L16 8L15 8L15 13L14 13L14 7L15 7L15 6L14 6L14 7L13 7L13 5L12 5L12 4L13 4L13 2ZM14 4L14 5L15 5L15 4ZM11 5L11 7L12 7L12 9L10 9L10 10L12 10L12 11L13 11L13 10L12 10L12 9L13 9L13 7L12 7L12 5ZM18 5L18 6L17 6L17 8L16 8L16 9L17 9L17 10L19 10L19 9L17 9L17 8L19 8L19 7L20 7L20 5ZM18 6L18 7L19 7L19 6ZM3 8L3 9L5 9L5 8ZM6 8L6 9L7 9L7 8ZM28 8L28 9L29 9L29 8ZM1 10L1 11L2 11L2 12L3 12L3 11L2 11L2 10ZM5 11L5 12L4 12L4 13L3 13L3 14L4 14L4 13L5 13L5 12L7 12L7 13L6 13L6 14L7 14L7 13L9 13L9 12L7 12L7 11ZM26 11L26 13L25 13L25 12L24 12L24 13L25 13L25 14L24 14L24 15L25 15L25 16L22 16L22 18L21 18L21 17L20 17L20 18L21 18L21 19L20 19L20 20L25 20L25 23L26 23L26 25L27 25L27 26L28 26L28 23L26 23L26 20L25 20L25 19L22 19L22 18L23 18L23 17L25 17L25 16L26 16L26 15L25 15L25 14L26 14L26 13L27 13L27 15L28 15L28 12L27 12L27 11ZM10 12L10 14L8 14L8 15L4 15L4 16L3 16L3 18L2 18L2 19L4 19L4 20L5 20L5 19L4 19L4 18L7 18L7 19L6 19L6 20L7 20L7 19L8 19L8 18L9 18L9 20L8 20L8 21L9 21L9 20L10 20L10 21L11 21L11 24L10 24L10 25L11 25L11 27L10 27L10 28L12 28L12 27L14 27L14 26L15 26L15 25L13 25L13 24L14 24L14 21L12 21L12 19L13 19L13 20L14 20L14 19L15 19L15 20L16 20L16 21L17 21L17 22L16 22L16 24L17 24L17 23L19 23L19 24L20 24L20 23L19 23L19 22L18 22L18 21L19 21L19 19L18 19L18 18L19 18L19 17L18 17L18 15L19 15L19 16L21 16L21 15L23 15L23 14L22 14L22 13L19 13L19 14L18 14L18 15L17 15L17 17L18 17L18 18L17 18L17 19L15 19L15 18L12 18L12 19L11 19L11 20L10 20L10 18L11 18L11 17L14 17L14 16L15 16L15 17L16 17L16 15L15 15L15 14L14 14L14 15L12 15L12 16L11 16L11 17L10 17L10 15L11 15L11 14L13 14L13 13L11 13L11 12ZM19 14L19 15L21 15L21 14ZM8 15L8 16L5 16L5 17L7 17L7 18L8 18L8 16L9 16L9 15ZM9 17L9 18L10 18L10 17ZM17 20L17 21L18 21L18 20ZM21 21L21 24L24 24L24 21ZM12 22L12 23L13 23L13 22ZM22 22L22 23L23 23L23 22ZM12 25L12 26L13 26L13 25ZM22 25L22 27L24 27L24 26L25 26L25 25L24 25L24 26L23 26L23 25ZM20 26L20 28L21 28L21 26ZM0 0L0 7L7 7L7 0ZM1 1L1 6L6 6L6 1ZM2 2L2 5L5 5L5 2ZM22 0L22 7L29 7L29 0ZM23 1L23 6L28 6L28 1ZM24 2L24 5L27 5L27 2ZM0 22L0 29L7 29L7 22ZM1 23L1 28L6 28L6 23ZM2 24L2 27L5 27L5 24Z" fill="#000000"/></g></g></svg>
