<?xml version="1.0" encoding="UTF-8"?>
<svg xmlns="http://www.w3.org/2000/svg" version="1.1" width="200" height="200" viewBox="0 0 200 200"><rect x="0" y="0" width="200" height="200" fill="#ffffff"/><g transform="scale(6.897)"><g transform="translate(0,0)"><path fill-rule="evenodd" d="M10 0L10 2L11 2L11 0ZM12 0L12 1L13 1L13 2L12 2L12 4L13 4L13 3L14 3L14 4L16 4L16 5L15 5L15 6L14 6L14 8L15 8L15 9L12 9L12 7L13 7L13 5L11 5L11 6L10 6L10 4L11 4L11 3L8 3L8 4L9 4L9 5L8 5L8 7L9 7L9 8L6 8L6 9L7 9L7 10L5 10L5 11L4 11L4 10L3 10L3 9L5 9L5 8L0 8L0 10L2 10L2 11L1 11L1 12L2 12L2 13L0 13L0 15L1 15L1 14L2 14L2 16L1 16L1 17L0 17L0 21L1 21L1 18L2 18L2 19L3 19L3 20L4 20L4 21L7 21L7 20L8 20L8 19L11 19L11 18L8 18L8 17L7 17L7 16L6 16L6 17L5 17L5 16L4 16L4 17L3 17L3 12L4 12L4 14L6 14L6 15L9 15L9 14L10 14L10 13L11 13L11 12L9 12L9 11L8 11L8 13L7 13L7 12L6 12L6 11L7 11L7 10L8 10L8 9L10 9L10 11L11 11L11 9L12 9L12 10L13 10L13 11L12 11L12 13L13 13L13 12L14 12L14 13L19 13L19 14L20 14L20 16L19 16L19 15L18 15L18 16L16 16L16 15L17 15L17 14L15 14L15 15L14 15L14 16L16 16L16 17L18 17L18 18L15 18L15 17L12 17L12 15L13 15L13 14L11 14L11 17L12 17L12 18L13 18L13 19L12 19L12 21L13 21L13 20L14 20L14 21L16 21L16 22L15 22L15 23L14 23L14 24L15 24L15 25L12 25L12 23L13 23L13 22L10 22L10 21L8 21L8 23L9 23L9 24L8 24L8 29L9 29L9 27L10 27L10 29L11 29L11 26L9 26L9 24L11 24L11 25L12 25L12 26L13 26L13 27L12 27L12 29L13 29L13 28L14 28L14 29L16 29L16 28L17 28L17 29L18 29L18 28L17 28L17 27L19 27L19 28L22 28L22 29L24 29L24 28L25 28L25 26L26 26L26 25L27 25L27 28L26 28L26 29L27 29L27 28L28 28L28 26L29 26L29 25L27 25L27 24L28 24L28 22L29 22L29 21L28 21L28 20L29 20L29 19L27 19L27 20L26 20L26 19L25 19L25 18L26 18L26 17L27 17L27 18L29 18L29 17L28 17L28 16L29 16L29 15L28 15L28 16L26 16L26 13L27 13L27 14L29 14L29 13L28 13L28 12L29 12L29 11L28 11L28 10L29 10L29 9L28 9L28 8L27 8L27 9L28 9L28 10L27 10L27 11L28 11L28 12L26 12L26 11L25 11L25 10L26 10L26 8L25 8L25 9L24 9L24 8L23 8L23 9L22 9L22 8L20 8L20 7L21 7L21 4L19 4L19 3L21 3L21 2L18 2L18 3L17 3L17 4L16 4L16 3L14 3L14 2L17 2L17 1L16 1L16 0L15 0L15 1L14 1L14 0ZM19 0L19 1L20 1L20 0ZM8 1L8 2L9 2L9 1ZM17 5L17 7L16 7L16 6L15 6L15 7L16 7L16 8L18 8L18 9L15 9L15 10L17 10L17 11L14 11L14 12L19 12L19 13L21 13L21 12L22 12L22 13L23 13L23 15L22 15L22 14L21 14L21 16L20 16L20 18L19 18L19 19L17 19L17 20L16 20L16 21L17 21L17 20L19 20L19 21L18 21L18 22L17 22L17 23L15 23L15 24L16 24L16 25L15 25L15 26L16 26L16 25L17 25L17 26L19 26L19 25L20 25L20 23L18 23L18 22L19 22L19 21L20 21L20 20L21 20L21 19L22 19L22 20L24 20L24 19L23 19L23 18L24 18L24 17L26 17L26 16L24 16L24 17L23 17L23 15L25 15L25 14L24 14L24 13L26 13L26 12L24 12L24 13L23 13L23 11L24 11L24 9L23 9L23 11L20 11L20 10L22 10L22 9L20 9L20 8L19 8L19 7L20 7L20 5ZM9 6L9 7L10 7L10 6ZM11 6L11 7L12 7L12 6ZM18 6L18 7L19 7L19 6ZM10 8L10 9L11 9L11 8ZM18 9L18 10L20 10L20 9ZM2 11L2 12L3 12L3 11ZM5 12L5 13L6 13L6 14L7 14L7 13L6 13L6 12ZM18 16L18 17L19 17L19 16ZM21 16L21 17L22 17L22 18L23 18L23 17L22 17L22 16ZM6 17L6 18L7 18L7 17ZM20 18L20 19L19 19L19 20L20 20L20 19L21 19L21 18ZM4 19L4 20L5 20L5 19ZM6 19L6 20L7 20L7 19ZM14 19L14 20L15 20L15 19ZM25 20L25 22L28 22L28 21L26 21L26 20ZM21 21L21 24L24 24L24 21ZM9 22L9 23L10 23L10 22ZM22 22L22 23L23 23L23 22ZM25 23L25 24L27 24L27 23ZM17 24L17 25L19 25L19 24ZM21 25L21 26L20 26L20 27L21 27L21 26L25 26L25 25ZM14 27L14 28L15 28L15 27ZM22 27L22 28L23 28L23 27ZM0 0L0 7L7 7L7 0ZM1 1L1 6L6 6L6 1ZM2 2L2 5L5 5L5 2ZM22 0L22 7L29 7L29 0ZM23 1L23 6L28 6L28 1ZM24 2L24 5L27 5L27 2ZM0 22L0 29L7 29L7 22ZM1 23L1 28L6 28L6 23ZM2 24L2 27L5 27L5 24Z" fill="#000000"/></g></g></svg>
