<?xml version="1.0" encoding="UTF-8"?>
<svg xmlns="http://www.w3.org/2000/svg" version="1.1" width="200" height="200" viewBox="0 0 200 200"><rect x="0" y="0" width="200" height="200" fill="#ffffff"/><g transform="scale(6.897)"><g transform="translate(0,0)"><path fill-rule="evenodd" d="M10 0L10 2L11 2L11 0ZM12 0L12 1L13 1L13 2L12 2L12 4L13 4L13 3L14 3L14 4L17 4L17 5L20 5L20 4L21 4L21 0L18 0L18 1L16 1L16 0L15 0L15 1L14 1L14 0ZM8 1L8 2L9 2L9 1ZM18 1L18 2L17 2L17 3L18 3L18 2L20 2L20 1ZM14 2L14 3L15 3L15 2ZM8 3L8 4L9 4L9 5L8 5L8 7L9 7L9 8L6 8L6 9L10 9L10 11L11 11L11 9L12 9L12 10L13 10L13 11L12 11L12 13L13 13L13 12L14 12L14 13L16 13L16 14L15 14L15 15L14 15L14 16L15 16L15 17L12 17L12 15L13 15L13 14L10 14L10 13L11 13L11 12L9 12L9 11L7 11L7 10L6 10L6 11L4 11L4 17L2 17L2 18L5 18L5 19L4 19L4 20L3 20L3 19L2 19L2 20L3 20L3 21L8 21L8 23L9 23L9 24L8 24L8 29L10 29L10 28L11 28L11 26L10 26L10 23L11 23L11 25L12 25L12 26L13 26L13 27L12 27L12 29L13 29L13 28L14 28L14 29L19 29L19 28L21 28L21 29L22 29L22 28L21 28L21 27L23 27L23 29L24 29L24 28L25 28L25 26L24 26L24 25L26 25L26 26L27 26L27 28L26 28L26 29L27 29L27 28L28 28L28 26L29 26L29 25L27 25L27 24L28 24L28 23L27 23L27 22L29 22L29 21L27 21L27 20L29 20L29 19L27 19L27 18L29 18L29 17L28 17L28 16L29 16L29 15L28 15L28 16L25 16L25 15L27 15L27 14L29 14L29 13L27 13L27 12L28 12L28 11L27 11L27 10L29 10L29 9L28 9L28 8L27 8L27 10L26 10L26 11L23 11L23 13L22 13L22 12L19 12L19 11L18 11L18 12L17 12L17 13L16 13L16 11L17 11L17 9L18 9L18 10L20 10L20 11L21 11L21 10L25 10L25 9L26 9L26 8L25 8L25 9L24 9L24 8L23 8L23 9L22 9L22 8L21 8L21 6L20 6L20 7L19 7L19 6L18 6L18 7L19 7L19 8L21 8L21 9L18 9L18 8L17 8L17 6L16 6L16 5L15 5L15 6L14 6L14 8L15 8L15 9L12 9L12 7L13 7L13 5L11 5L11 6L10 6L10 4L11 4L11 3ZM19 3L19 4L20 4L20 3ZM9 6L9 7L10 7L10 6ZM11 6L11 7L12 7L12 6ZM15 6L15 8L16 8L16 9L15 9L15 10L16 10L16 9L17 9L17 8L16 8L16 6ZM0 8L0 10L1 10L1 11L0 11L0 12L1 12L1 14L0 14L0 15L1 15L1 16L0 16L0 21L1 21L1 16L3 16L3 13L2 13L2 12L1 12L1 11L2 11L2 10L3 10L3 9L4 9L4 10L5 10L5 8ZM10 8L10 9L11 9L11 8ZM1 9L1 10L2 10L2 9ZM6 11L6 12L5 12L5 13L6 13L6 14L7 14L7 13L6 13L6 12L7 12L7 11ZM14 11L14 12L15 12L15 11ZM26 11L26 12L24 12L24 13L23 13L23 14L24 14L24 13L25 13L25 14L27 14L27 13L26 13L26 12L27 12L27 11ZM18 12L18 13L17 13L17 14L18 14L18 13L19 13L19 12ZM20 13L20 14L19 14L19 16L20 16L20 18L19 18L19 17L18 17L18 18L17 18L17 17L15 17L15 18L17 18L17 19L14 19L14 20L13 20L13 21L12 21L12 19L13 19L13 18L12 18L12 17L9 17L9 14L8 14L8 16L7 16L7 15L6 15L6 16L7 16L7 17L6 17L6 18L7 18L7 17L9 17L9 18L8 18L8 19L10 19L10 18L11 18L11 20L10 20L10 21L9 21L9 22L13 22L13 23L12 23L12 25L15 25L15 26L17 26L17 28L19 28L19 25L20 25L20 27L21 27L21 26L23 26L23 27L24 27L24 26L23 26L23 25L20 25L20 23L19 23L19 21L20 21L20 20L21 20L21 19L22 19L22 20L24 20L24 19L25 19L25 20L27 20L27 19L25 19L25 18L24 18L24 17L25 17L25 16L24 16L24 17L23 17L23 15L22 15L22 14L21 14L21 13ZM1 14L1 15L2 15L2 14ZM20 14L20 16L21 16L21 17L22 17L22 18L23 18L23 17L22 17L22 16L21 16L21 14ZM15 15L15 16L18 16L18 15ZM26 17L26 18L27 18L27 17ZM18 18L18 19L19 19L19 18ZM20 18L20 19L21 19L21 18ZM6 19L6 20L7 20L7 19ZM14 20L14 21L19 21L19 20ZM21 21L21 24L24 24L24 21ZM25 21L25 22L27 22L27 21ZM15 22L15 23L14 23L14 24L15 24L15 25L19 25L19 23L18 23L18 24L17 24L17 22ZM22 22L22 23L23 23L23 22ZM25 23L25 24L27 24L27 23ZM14 27L14 28L15 28L15 27ZM0 0L0 7L7 7L7 0ZM1 1L1 6L6 6L6 1ZM2 2L2 5L5 5L5 2ZM22 0L22 7L29 7L29 0ZM23 1L23 6L28 6L28 1ZM24 2L24 5L27 5L27 2ZM0 22L0 29L7 29L7 22ZM1 23L1 28L6 28L6 23ZM2 24L2 27L5 27L5 24Z" fill="#000000"/></g></g></svg>
