<?xml version="1.0" encoding="UTF-8"?>
<svg xmlns="http://www.w3.org/2000/svg" version="1.1" width="200" height="200" viewBox="0 0 200 200"><rect x="0" y="0" width="200" height="200" fill="#ffffff"/><g transform="scale(6.897)"><g transform="translate(0,0)"><path fill-rule="evenodd" d="M8 0L8 4L10 4L10 3L11 3L11 4L12 4L12 2L11 2L11 0ZM12 0L12 1L13 1L13 0ZM14 0L14 1L15 1L15 0ZM20 0L20 1L18 1L18 2L17 2L17 1L16 1L16 2L15 2L15 3L14 3L14 2L13 2L13 3L14 3L14 4L13 4L13 5L11 5L11 6L10 6L10 7L9 7L9 5L8 5L8 7L9 7L9 8L10 8L10 7L11 7L11 6L12 6L12 8L11 8L11 9L9 9L9 10L11 10L11 11L10 11L10 13L9 13L9 11L7 11L7 10L6 10L6 9L7 9L7 8L4 8L4 9L2 9L2 8L0 8L0 11L2 11L2 13L1 13L1 12L0 12L0 13L1 13L1 14L0 14L0 15L2 15L2 16L5 16L5 17L7 17L7 18L5 18L5 19L4 19L4 17L3 17L3 19L4 19L4 20L5 20L5 19L7 19L7 18L8 18L8 19L9 19L9 18L10 18L10 19L11 19L11 20L9 20L9 21L8 21L8 20L6 20L6 21L8 21L8 22L10 22L10 21L11 21L11 20L12 20L12 21L13 21L13 22L15 22L15 23L14 23L14 24L13 24L13 23L12 23L12 24L10 24L10 26L9 26L9 27L8 27L8 29L9 29L9 28L10 28L10 29L11 29L11 28L12 28L12 29L14 29L14 27L15 27L15 28L16 28L16 29L19 29L19 26L16 26L16 25L21 25L21 27L20 27L20 29L21 29L21 27L22 27L22 29L24 29L24 28L23 28L23 27L22 27L22 25L25 25L25 26L27 26L27 29L28 29L28 28L29 28L29 25L28 25L28 24L29 24L29 21L28 21L28 20L29 20L29 17L28 17L28 15L29 15L29 13L27 13L27 17L26 17L26 15L22 15L22 16L23 16L23 17L21 17L21 14L20 14L20 18L22 18L22 19L21 19L21 20L20 20L20 22L19 22L19 21L18 21L18 20L19 20L19 17L18 17L18 16L19 16L19 13L21 13L21 12L22 12L22 11L23 11L23 12L24 12L24 11L23 11L23 9L24 9L24 10L26 10L26 11L27 11L27 12L28 12L28 11L29 11L29 8L25 8L25 9L24 9L24 8L23 8L23 9L20 9L20 7L21 7L21 0ZM9 2L9 3L10 3L10 2ZM16 2L16 5L15 5L15 7L16 7L16 6L17 6L17 7L18 7L18 6L19 6L19 7L20 7L20 6L19 6L19 5L20 5L20 2L19 2L19 3L17 3L17 2ZM17 4L17 5L19 5L19 4ZM13 6L13 8L12 8L12 9L11 9L11 10L12 10L12 9L13 9L13 10L15 10L15 9L16 9L16 10L18 10L18 9L19 9L19 12L18 12L18 13L17 13L17 11L16 11L16 12L15 12L15 11L14 11L14 13L17 13L17 14L18 14L18 13L19 13L19 12L21 12L21 11L22 11L22 10L21 10L21 11L20 11L20 9L19 9L19 8L18 8L18 9L16 9L16 8L15 8L15 9L13 9L13 8L14 8L14 6ZM1 9L1 10L2 10L2 11L3 11L3 13L2 13L2 15L3 15L3 13L4 13L4 14L5 14L5 15L6 15L6 16L7 16L7 17L9 17L9 16L12 16L12 17L10 17L10 18L12 18L12 17L13 17L13 18L15 18L15 17L16 17L16 19L14 19L14 21L16 21L16 22L17 22L17 23L18 23L18 24L20 24L20 23L19 23L19 22L18 22L18 21L16 21L16 20L17 20L17 18L18 18L18 17L16 17L16 15L15 15L15 14L13 14L13 13L12 13L12 12L13 12L13 11L12 11L12 12L11 12L11 13L10 13L10 14L9 14L9 13L8 13L8 12L7 12L7 11L5 11L5 9L4 9L4 10L2 10L2 9ZM4 11L4 12L5 12L5 13L7 13L7 12L5 12L5 11ZM22 13L22 14L26 14L26 13ZM6 14L6 15L7 15L7 14ZM8 15L8 16L9 16L9 15ZM12 15L12 16L13 16L13 17L15 17L15 15L14 15L14 16L13 16L13 15ZM24 16L24 17L23 17L23 20L25 20L25 18L24 18L24 17L25 17L25 16ZM0 17L0 18L1 18L1 17ZM26 18L26 21L25 21L25 25L27 25L27 26L28 26L28 25L27 25L27 23L26 23L26 21L27 21L27 20L28 20L28 19L27 19L27 18ZM12 19L12 20L13 20L13 19ZM0 20L0 21L3 21L3 20ZM21 21L21 24L24 24L24 21ZM22 22L22 23L23 23L23 22ZM8 23L8 25L9 25L9 23ZM12 24L12 25L11 25L11 26L12 26L12 25L13 25L13 26L15 26L15 25L13 25L13 24ZM10 27L10 28L11 28L11 27ZM12 27L12 28L13 28L13 27ZM16 27L16 28L17 28L17 27ZM25 28L25 29L26 29L26 28ZM0 0L0 7L7 7L7 0ZM1 1L1 6L6 6L6 1ZM2 2L2 5L5 5L5 2ZM22 0L22 7L29 7L29 0ZM23 1L23 6L28 6L28 1ZM24 2L24 5L27 5L27 2ZM0 22L0 29L7 29L7 22ZM1 23L1 28L6 28L6 23ZM2 24L2 27L5 27L5 24Z" fill="#000000"/></g></g></svg>
