<?xml version="1.0" encoding="UTF-8"?>
<svg xmlns="http://www.w3.org/2000/svg" version="1.1" width="200" height="200" viewBox="0 0 200 200"><rect x="0" y="0" width="200" height="200" fill="#ffffff"/><g transform="scale(6.897)"><g transform="translate(0,0)"><path fill-rule="evenodd" d="M8 0L8 4L10 4L10 3L11 3L11 4L12 4L12 2L11 2L11 0ZM12 0L12 1L13 1L13 0ZM14 0L14 1L15 1L15 0ZM20 0L20 1L17 1L17 2L16 2L16 3L14 3L14 2L13 2L13 3L14 3L14 4L13 4L13 5L11 5L11 6L10 6L10 7L9 7L9 5L8 5L8 7L9 7L9 8L10 8L10 7L11 7L11 6L12 6L12 8L11 8L11 9L9 9L9 10L5 10L5 12L4 12L4 11L3 11L3 12L4 12L4 13L5 13L5 12L6 12L6 13L7 13L7 14L6 14L6 15L7 15L7 16L6 16L6 17L7 17L7 18L5 18L5 17L3 17L3 15L4 15L4 16L5 16L5 15L4 15L4 14L3 14L3 13L2 13L2 14L3 14L3 15L2 15L2 16L1 16L1 14L0 14L0 16L1 16L1 17L0 17L0 18L4 18L4 19L2 19L2 20L0 20L0 21L2 21L2 20L3 20L3 21L4 21L4 20L6 20L6 21L7 21L7 20L6 20L6 19L9 19L9 18L10 18L10 20L8 20L8 22L9 22L9 23L8 23L8 25L9 25L9 26L10 26L10 27L8 27L8 29L9 29L9 28L10 28L10 29L11 29L11 28L12 28L12 29L14 29L14 27L16 27L16 26L17 26L17 28L16 28L16 29L21 29L21 28L22 28L22 27L19 27L19 26L21 26L21 25L23 25L23 27L24 27L24 25L25 25L25 27L27 27L27 29L28 29L28 28L29 28L29 25L28 25L28 24L29 24L29 21L27 21L27 25L26 25L26 23L25 23L25 22L26 22L26 21L25 21L25 20L23 20L23 19L26 19L26 18L27 18L27 20L28 20L28 19L29 19L29 17L28 17L28 15L29 15L29 13L27 13L27 17L26 17L26 15L25 15L25 17L24 17L24 15L22 15L22 16L23 16L23 17L21 17L21 13L20 13L20 18L22 18L22 19L21 19L21 20L20 20L20 19L17 19L17 21L14 21L14 19L15 19L15 20L16 20L16 17L18 17L18 18L19 18L19 17L18 17L18 15L19 15L19 13L18 13L18 12L19 12L19 11L18 11L18 9L21 9L21 12L23 12L23 13L22 13L22 14L23 14L23 13L24 13L24 14L26 14L26 13L24 13L24 11L26 11L26 10L27 10L27 9L28 9L28 11L29 11L29 8L25 8L25 9L24 9L24 8L23 8L23 9L21 9L21 8L19 8L19 6L20 6L20 7L21 7L21 6L20 6L20 5L21 5L21 2L20 2L20 1L21 1L21 0ZM9 2L9 3L10 3L10 2ZM18 2L18 3L17 3L17 4L19 4L19 5L17 5L17 7L16 7L16 5L15 5L15 7L16 7L16 8L15 8L15 9L13 9L13 8L14 8L14 6L13 6L13 8L12 8L12 9L11 9L11 10L9 10L9 11L8 11L8 14L7 14L7 15L8 15L8 16L7 16L7 17L8 17L8 18L9 18L9 17L10 17L10 16L9 16L9 15L11 15L11 16L12 16L12 17L11 17L11 18L12 18L12 17L13 17L13 18L15 18L15 17L16 17L16 15L17 15L17 14L18 14L18 13L17 13L17 9L16 9L16 8L17 8L17 7L18 7L18 6L19 6L19 5L20 5L20 2ZM0 8L0 9L1 9L1 10L0 10L0 11L1 11L1 10L4 10L4 9L7 9L7 8L4 8L4 9L2 9L2 8ZM12 9L12 10L11 10L11 11L10 11L10 13L11 13L11 12L12 12L12 13L13 13L13 14L15 14L15 15L14 15L14 16L13 16L13 15L12 15L12 16L13 16L13 17L15 17L15 15L16 15L16 14L17 14L17 13L14 13L14 11L15 11L15 12L16 12L16 9L15 9L15 10L13 10L13 9ZM23 9L23 11L24 11L24 9ZM25 9L25 10L26 10L26 9ZM6 11L6 12L7 12L7 11ZM12 11L12 12L13 12L13 11ZM0 12L0 13L1 13L1 12ZM8 16L8 17L9 17L9 16ZM23 17L23 18L24 18L24 17ZM12 19L12 20L11 20L11 21L10 21L10 26L12 26L12 25L13 25L13 26L15 26L15 25L17 25L17 26L19 26L19 25L17 25L17 24L16 24L16 23L19 23L19 24L20 24L20 23L19 23L19 22L20 22L20 21L17 21L17 22L16 22L16 23L15 23L15 22L13 22L13 21L12 21L12 20L13 20L13 19ZM21 21L21 24L24 24L24 21ZM22 22L22 23L23 23L23 22ZM12 23L12 24L11 24L11 25L12 25L12 24L13 24L13 25L15 25L15 23L14 23L14 24L13 24L13 23ZM27 25L27 26L28 26L28 25ZM10 27L10 28L11 28L11 27ZM12 27L12 28L13 28L13 27ZM18 27L18 28L19 28L19 27ZM23 28L23 29L24 29L24 28ZM25 28L25 29L26 29L26 28ZM0 0L0 7L7 7L7 0ZM1 1L1 6L6 6L6 1ZM2 2L2 5L5 5L5 2ZM22 0L22 7L29 7L29 0ZM23 1L23 6L28 6L28 1ZM24 2L24 5L27 5L27 2ZM0 22L0 29L7 29L7 22ZM1 23L1 28L6 28L6 23ZM2 24L2 27L5 27L5 24Z" fill="#000000"/></g></g></svg>
