<?xml version="1.0" encoding="UTF-8"?>
<svg xmlns="http://www.w3.org/2000/svg" version="1.1" width="200" height="200" viewBox="0 0 200 200"><rect x="0" y="0" width="200" height="200" fill="#ffffff"/><g transform="scale(6.897)"><g transform="translate(0,0)"><path fill-rule="evenodd" d="M10 0L10 2L11 2L11 0ZM12 0L12 1L13 1L13 2L12 2L12 4L13 4L13 3L14 3L14 4L15 4L15 3L16 3L16 4L17 4L17 5L15 5L15 6L14 6L14 8L15 8L15 9L12 9L12 7L13 7L13 5L11 5L11 6L10 6L10 4L11 4L11 3L8 3L8 4L9 4L9 5L8 5L8 7L9 7L9 8L6 8L6 9L5 9L5 8L0 8L0 9L2 9L2 11L0 11L0 14L1 14L1 15L2 15L2 16L4 16L4 17L5 17L5 18L4 18L4 19L3 19L3 18L2 18L2 17L0 17L0 21L1 21L1 18L2 18L2 19L3 19L3 21L5 21L5 20L6 20L6 21L8 21L8 23L10 23L10 24L11 24L11 25L9 25L9 24L8 24L8 29L10 29L10 28L11 28L11 25L12 25L12 26L13 26L13 27L12 27L12 29L13 29L13 28L14 28L14 29L19 29L19 28L21 28L21 29L22 29L22 27L23 27L23 29L24 29L24 28L25 28L25 27L26 27L26 25L27 25L27 28L26 28L26 29L27 29L27 28L28 28L28 26L29 26L29 25L27 25L27 24L28 24L28 22L29 22L29 20L25 20L25 19L26 19L26 17L28 17L28 18L27 18L27 19L28 19L28 18L29 18L29 17L28 17L28 16L29 16L29 15L28 15L28 14L29 14L29 13L28 13L28 10L29 10L29 9L28 9L28 8L27 8L27 9L26 9L26 8L25 8L25 9L24 9L24 8L23 8L23 9L22 9L22 8L20 8L20 9L19 9L19 8L17 8L17 9L16 9L16 8L15 8L15 6L16 6L16 7L17 7L17 5L20 5L20 4L21 4L21 2L19 2L19 1L20 1L20 0L19 0L19 1L18 1L18 2L19 2L19 3L16 3L16 2L17 2L17 1L16 1L16 0L15 0L15 1L14 1L14 0ZM8 1L8 2L9 2L9 1ZM14 2L14 3L15 3L15 2ZM19 3L19 4L20 4L20 3ZM9 6L9 7L10 7L10 6ZM11 6L11 7L12 7L12 6ZM18 6L18 7L19 7L19 6ZM20 6L20 7L21 7L21 6ZM10 8L10 9L9 9L9 10L7 10L7 9L6 9L6 10L7 10L7 11L5 11L5 9L3 9L3 10L4 10L4 11L2 11L2 12L1 12L1 14L2 14L2 13L3 13L3 15L4 15L4 16L5 16L5 17L6 17L6 18L8 18L8 17L9 17L9 16L11 16L11 15L10 15L10 14L13 14L13 15L12 15L12 17L10 17L10 18L9 18L9 19L8 19L8 21L9 21L9 22L10 22L10 23L11 23L11 22L13 22L13 23L12 23L12 25L15 25L15 26L18 26L18 25L20 25L20 27L22 27L22 26L23 26L23 27L24 27L24 26L25 26L25 25L24 25L24 26L23 26L23 25L22 25L22 26L21 26L21 25L20 25L20 23L15 23L15 22L16 22L16 21L17 21L17 22L18 22L18 21L20 21L20 18L21 18L21 19L22 19L22 20L24 20L24 17L25 17L25 16L27 16L27 14L28 14L28 13L26 13L26 12L27 12L27 10L28 10L28 9L27 9L27 10L26 10L26 9L25 9L25 10L24 10L24 9L23 9L23 10L22 10L22 9L20 9L20 10L19 10L19 9L17 9L17 10L16 10L16 9L15 9L15 10L16 10L16 11L14 11L14 12L13 12L13 13L12 13L12 11L13 11L13 10L12 10L12 9L11 9L11 8ZM10 9L10 11L11 11L11 9ZM17 10L17 11L19 11L19 10ZM20 10L20 11L21 11L21 12L14 12L14 13L19 13L19 14L20 14L20 16L19 16L19 15L18 15L18 14L17 14L17 15L18 15L18 16L15 16L15 15L16 15L16 14L15 14L15 15L14 15L14 16L15 16L15 17L12 17L12 18L13 18L13 19L12 19L12 21L13 21L13 20L14 20L14 21L16 21L16 20L17 20L17 21L18 21L18 20L17 20L17 19L16 19L16 18L15 18L15 17L19 17L19 18L18 18L18 19L19 19L19 18L20 18L20 16L21 16L21 17L22 17L22 18L23 18L23 17L24 17L24 16L25 16L25 14L26 14L26 13L24 13L24 12L26 12L26 11L23 11L23 13L22 13L22 10ZM4 11L4 15L7 15L7 14L8 14L8 15L9 15L9 13L11 13L11 12L8 12L8 11L7 11L7 12L5 12L5 11ZM5 13L5 14L7 14L7 13ZM20 13L20 14L21 14L21 16L22 16L22 17L23 17L23 16L24 16L24 15L22 15L22 14L21 14L21 13ZM23 13L23 14L24 14L24 13ZM6 16L6 17L8 17L8 16ZM6 19L6 20L7 20L7 19ZM14 19L14 20L15 20L15 19ZM9 20L9 21L10 21L10 20ZM21 21L21 24L24 24L24 21ZM26 21L26 22L25 22L25 24L27 24L27 22L28 22L28 21ZM22 22L22 23L23 23L23 22ZM14 23L14 24L15 24L15 25L18 25L18 24L15 24L15 23ZM9 26L9 28L10 28L10 26ZM14 27L14 28L15 28L15 27ZM17 27L17 28L19 28L19 27ZM0 0L0 7L7 7L7 0ZM1 1L1 6L6 6L6 1ZM2 2L2 5L5 5L5 2ZM22 0L22 7L29 7L29 0ZM23 1L23 6L28 6L28 1ZM24 2L24 5L27 5L27 2ZM0 22L0 29L7 29L7 22ZM1 23L1 28L6 28L6 23ZM2 24L2 27L5 27L5 24Z" fill="#000000"/></g></g></svg>
