<?xml version="1.0" encoding="UTF-8"?>
<svg xmlns="http://www.w3.org/2000/svg" version="1.1" width="200" height="200" viewBox="0 0 200 200"><rect x="0" y="0" width="200" height="200" fill="#ffffff"/><g transform="scale(6.897)"><g transform="translate(0,0)"><path fill-rule="evenodd" d="M9 0L9 1L8 1L8 3L9 3L9 4L8 4L8 8L6 8L6 9L7 9L7 10L4 10L4 11L3 11L3 9L4 9L4 8L3 8L3 9L2 9L2 8L0 8L0 13L1 13L1 15L0 15L0 16L1 16L1 15L3 15L3 16L2 16L2 17L1 17L1 18L0 18L0 19L1 19L1 18L2 18L2 19L3 19L3 21L7 21L7 20L5 20L5 17L7 17L7 18L6 18L6 19L8 19L8 17L7 17L7 16L9 16L9 17L10 17L10 18L9 18L9 21L8 21L8 23L9 23L9 22L10 22L10 20L11 20L11 24L10 24L10 25L11 25L11 26L9 26L9 25L8 25L8 26L9 26L9 27L8 27L8 29L9 29L9 27L11 27L11 28L12 28L12 29L14 29L14 28L12 28L12 24L14 24L14 25L13 25L13 27L15 27L15 28L16 28L16 29L21 29L21 28L22 28L22 29L24 29L24 28L22 28L22 26L24 26L24 27L25 27L25 29L26 29L26 26L25 26L25 25L26 25L26 24L27 24L27 26L28 26L28 27L27 27L27 29L28 29L28 27L29 27L29 26L28 26L28 25L29 25L29 24L28 24L28 22L29 22L29 20L28 20L28 21L27 21L27 20L26 20L26 19L27 19L27 17L26 17L26 19L25 19L25 20L23 20L23 18L24 18L24 17L22 17L22 18L21 18L21 15L22 15L22 13L23 13L23 15L24 15L24 9L25 9L25 13L26 13L26 14L25 14L25 16L26 16L26 14L27 14L27 13L29 13L29 11L27 11L27 10L26 10L26 9L28 9L28 10L29 10L29 9L28 9L28 8L26 8L26 9L25 9L25 8L22 8L22 10L23 10L23 12L22 12L22 13L21 13L21 11L20 11L20 10L19 10L19 6L20 6L20 9L21 9L21 6L20 6L20 5L19 5L19 4L20 4L20 3L21 3L21 2L20 2L20 3L19 3L19 4L17 4L17 3L18 3L18 2L19 2L19 1L21 1L21 0L19 0L19 1L17 1L17 0L16 0L16 1L15 1L15 0L12 0L12 1L11 1L11 2L9 2L9 1L10 1L10 0ZM16 1L16 3L17 3L17 1ZM14 2L14 3L15 3L15 2ZM12 3L12 4L9 4L9 5L10 5L10 6L9 6L9 7L10 7L10 8L8 8L8 10L10 10L10 8L11 8L11 9L12 9L12 10L11 10L11 11L9 11L9 12L8 12L8 11L6 11L6 12L8 12L8 13L5 13L5 11L4 11L4 14L3 14L3 13L2 13L2 12L3 12L3 11L2 11L2 12L1 12L1 13L2 13L2 14L3 14L3 15L4 15L4 17L5 17L5 16L7 16L7 15L6 15L6 14L9 14L9 15L10 15L10 16L12 16L12 17L11 17L11 19L12 19L12 20L13 20L13 21L14 21L14 22L15 22L15 23L14 23L14 24L15 24L15 27L16 27L16 28L17 28L17 26L18 26L18 25L16 25L16 24L18 24L18 23L20 23L20 21L19 21L19 22L17 22L17 21L18 21L18 20L17 20L17 19L19 19L19 20L21 20L21 19L20 19L20 16L19 16L19 15L20 15L20 14L19 14L19 15L18 15L18 17L17 17L17 16L15 16L15 17L13 17L13 16L12 16L12 14L9 14L9 13L12 13L12 12L13 12L13 15L16 15L16 14L18 14L18 13L16 13L16 12L14 12L14 11L17 11L17 12L19 12L19 13L20 13L20 12L19 12L19 10L18 10L18 11L17 11L17 9L18 9L18 8L14 8L14 6L13 6L13 3ZM16 4L16 5L17 5L17 7L18 7L18 5L17 5L17 4ZM11 5L11 6L10 6L10 7L11 7L11 6L12 6L12 8L13 8L13 6L12 6L12 5ZM15 6L15 7L16 7L16 6ZM14 9L14 10L15 10L15 9ZM26 12L26 13L27 13L27 12ZM4 14L4 15L5 15L5 14ZM28 14L28 15L27 15L27 16L29 16L29 14ZM16 17L16 18L17 18L17 17ZM28 17L28 19L29 19L29 17ZM13 18L13 20L14 20L14 21L15 21L15 20L14 20L14 18ZM0 20L0 21L1 21L1 20ZM25 20L25 21L26 21L26 23L27 23L27 21L26 21L26 20ZM21 21L21 24L24 24L24 21ZM16 22L16 23L15 23L15 24L16 24L16 23L17 23L17 22ZM22 22L22 23L23 23L23 22ZM19 24L19 25L20 25L20 26L19 26L19 28L20 28L20 27L21 27L21 25L20 25L20 24ZM0 0L0 7L7 7L7 0ZM1 1L1 6L6 6L6 1ZM2 2L2 5L5 5L5 2ZM22 0L22 7L29 7L29 0ZM23 1L23 6L28 6L28 1ZM24 2L24 5L27 5L27 2ZM0 22L0 29L7 29L7 22ZM1 23L1 28L6 28L6 23ZM2 24L2 27L5 27L5 24Z" fill="#000000"/></g></g></svg>
