<?xml version="1.0" encoding="UTF-8"?>
<svg xmlns="http://www.w3.org/2000/svg" version="1.1" width="200" height="200" viewBox="0 0 200 200"><rect x="0" y="0" width="200" height="200" fill="#ffffff"/><g transform="scale(6.897)"><g transform="translate(0,0)"><path fill-rule="evenodd" d="M10 0L10 2L11 2L11 0ZM12 0L12 1L13 1L13 2L12 2L12 4L13 4L13 3L14 3L14 4L17 4L17 5L21 5L21 4L19 4L19 3L16 3L16 2L19 2L19 1L20 1L20 3L21 3L21 0L18 0L18 1L16 1L16 0L15 0L15 1L14 1L14 0ZM8 1L8 2L9 2L9 1ZM14 2L14 3L15 3L15 2ZM8 3L8 4L9 4L9 5L8 5L8 7L9 7L9 8L6 8L6 9L8 9L8 10L9 10L9 9L10 9L10 11L11 11L11 9L12 9L12 10L13 10L13 11L12 11L12 13L13 13L13 12L14 12L14 13L19 13L19 14L20 14L20 16L19 16L19 15L18 15L18 16L17 16L17 15L16 15L16 14L15 14L15 15L14 15L14 16L15 16L15 17L12 17L12 15L13 15L13 14L8 14L8 16L9 16L9 17L7 17L7 16L6 16L6 15L7 15L7 14L6 14L6 13L7 13L7 12L8 12L8 11L7 11L7 10L5 10L5 11L7 11L7 12L5 12L5 14L6 14L6 15L4 15L4 13L2 13L2 12L1 12L1 13L2 13L2 15L1 15L1 14L0 14L0 15L1 15L1 16L0 16L0 21L1 21L1 18L2 18L2 20L3 20L3 21L8 21L8 23L9 23L9 24L8 24L8 29L10 29L10 28L11 28L11 25L12 25L12 26L13 26L13 27L12 27L12 29L13 29L13 28L14 28L14 29L20 29L20 28L22 28L22 29L24 29L24 28L25 28L25 26L26 26L26 25L27 25L27 28L26 28L26 29L27 29L27 28L28 28L28 26L29 26L29 25L27 25L27 24L28 24L28 23L27 23L27 22L29 22L29 21L28 21L28 20L25 20L25 19L26 19L26 18L25 18L25 17L24 17L24 16L26 16L26 17L27 17L27 16L26 16L26 13L27 13L27 14L29 14L29 13L28 13L28 12L29 12L29 11L27 11L27 10L29 10L29 9L28 9L28 8L27 8L27 10L26 10L26 8L25 8L25 9L24 9L24 8L23 8L23 9L22 9L22 8L21 8L21 6L20 6L20 8L21 8L21 9L19 9L19 8L15 8L15 6L16 6L16 7L17 7L17 6L16 6L16 5L15 5L15 6L14 6L14 8L15 8L15 9L12 9L12 7L13 7L13 5L11 5L11 6L10 6L10 4L11 4L11 3ZM9 6L9 7L10 7L10 6ZM11 6L11 7L12 7L12 6ZM18 6L18 7L19 7L19 6ZM0 8L0 9L3 9L3 10L4 10L4 9L5 9L5 8ZM10 8L10 9L11 9L11 8ZM15 9L15 10L16 10L16 11L14 11L14 12L16 12L16 11L17 11L17 12L21 12L21 11L23 11L23 12L22 12L22 13L23 13L23 14L24 14L24 15L22 15L22 14L21 14L21 13L20 13L20 14L21 14L21 16L20 16L20 18L19 18L19 19L17 19L17 18L18 18L18 17L19 17L19 16L18 16L18 17L17 17L17 16L16 16L16 17L15 17L15 18L16 18L16 20L15 20L15 19L14 19L14 20L13 20L13 21L12 21L12 19L13 19L13 18L12 18L12 17L11 17L11 15L10 15L10 17L11 17L11 18L10 18L10 19L11 19L11 20L9 20L9 18L8 18L8 20L9 20L9 22L13 22L13 23L12 23L12 25L15 25L15 26L16 26L16 25L17 25L17 26L18 26L18 27L14 27L14 28L18 28L18 27L19 27L19 28L20 28L20 27L21 27L21 26L23 26L23 27L22 27L22 28L23 28L23 27L24 27L24 26L25 26L25 25L26 25L26 24L27 24L27 23L26 23L26 24L25 24L25 25L24 25L24 26L23 26L23 25L21 25L21 26L19 26L19 25L20 25L20 23L19 23L19 25L17 25L17 24L18 24L18 22L19 22L19 21L18 21L18 22L17 22L17 21L16 21L16 20L21 20L21 19L22 19L22 20L23 20L23 19L24 19L24 17L23 17L23 16L24 16L24 15L25 15L25 14L24 14L24 13L25 13L25 12L27 12L27 11L26 11L26 10L25 10L25 12L24 12L24 9L23 9L23 10L22 10L22 9L21 9L21 11L20 11L20 10L19 10L19 9ZM1 10L1 11L2 11L2 10ZM17 10L17 11L18 11L18 10ZM9 12L9 13L11 13L11 12ZM23 12L23 13L24 13L24 12ZM3 15L3 17L4 17L4 15ZM28 15L28 16L29 16L29 15ZM1 16L1 17L2 17L2 16ZM5 16L5 18L4 18L4 19L3 19L3 20L5 20L5 19L6 19L6 20L7 20L7 19L6 19L6 18L7 18L7 17L6 17L6 16ZM21 16L21 17L22 17L22 18L23 18L23 17L22 17L22 16ZM16 17L16 18L17 18L17 17ZM28 17L28 18L27 18L27 19L28 19L28 18L29 18L29 17ZM14 20L14 21L15 21L15 20ZM21 21L21 24L24 24L24 21ZM25 21L25 22L27 22L27 21ZM15 22L15 23L14 23L14 24L15 24L15 25L16 25L16 24L15 24L15 23L17 23L17 22ZM22 22L22 23L23 23L23 22ZM9 27L9 28L10 28L10 27ZM0 0L0 7L7 7L7 0ZM1 1L1 6L6 6L6 1ZM2 2L2 5L5 5L5 2ZM22 0L22 7L29 7L29 0ZM23 1L23 6L28 6L28 1ZM24 2L24 5L27 5L27 2ZM0 22L0 29L7 29L7 22ZM1 23L1 28L6 28L6 23ZM2 24L2 27L5 27L5 24Z" fill="#000000"/></g></g></svg>
